<svg xmlns="http://www.w3.org/2000/svg" viewBox="0 0 744.47 1026.72"><defs><style>.cls-1{fill:#202021;}.cls-2{fill:#8db7ef;}.cls-3{fill:#3d1f03;}.cls-4{fill:#00beb2;}.cls-5{fill:#f9d1b6;}.cls-6{fill:#f5f4ff;}.cls-7{fill:#c7c0cc;}.cls-8{fill:#bb9aef;}.cls-9{fill:#3f3822;}.cls-10{fill:#f9bbb6;}.cls-11{fill:#00dbb2;}.cls-12{fill:#c29348;}.cls-13{fill:#e8af38;}.cls-14{fill:#c29948;}</style></defs><title>Idoso Mao</title><g id="Camada_2" data-name="Camada 2"><path class="cls-1" d="M516.1,700.17s0,0,0,.06c-.13,6.27,8.15,6.35,12.7,6.24,4.24-.11,5.73-2.16,7.21-5A102.49,102.49,0,0,1,516.1,700.17Z" transform="translate(-135.76 -329.53)"/><path class="cls-2" d="M539.53,701.25c-.56,1.14-1,2.42-1.51,3.6a33.43,33.43,0,0,1,7.91,5.57,24.45,24.45,0,0,1,6.06-3.93,1.43,1.43,0,0,1,.48-.13q1.69-4.9,3.09-9.92C551.14,699.13,545.67,700.64,539.53,701.25Z" transform="translate(-135.76 -329.53)"/><path class="cls-3" d="M484.07,1131.87c-9.9-1.79-19.69-3.67-29.74-4.49a211.77,211.77,0,0,0-28.61-.41c-8.19.44-16.19,1.86-24.31,2.77l-.05.06c-6.05,5.86-13.4,14.34-12.61,23.37s9.92,12.94,17.42,15.3c15.09,4.74,31.2,3.49,46.77,2.92,16.11-.59,34.29,2.3,49.3-4.91,12.39-6,22.09-23.11,9.8-34.37a1.34,1.34,0,0,1-.35-.47,36.41,36.41,0,0,1-5.22,1.28C499,1134.2,491.45,1133.21,484.07,1131.87Z" transform="translate(-135.76 -329.53)"/><path class="cls-2" d="M488.1,706.38q2.64,2.13,5.39,4.11c7.88,5.71,16,11.15,24,16.64a53.52,53.52,0,0,0,1.67-18.77c-.31-.09-.62-.2-.92-.31a1.6,1.6,0,0,1-.51.39,14.14,14.14,0,0,0-6.34,5.88,1.52,1.52,0,0,1-2.36.3C503.15,709.27,496,705.08,488.1,706.38Z" transform="translate(-135.76 -329.53)"/><path class="cls-1" d="M529.88,735.62c4,2.77,5.55,2.66,8.46-1.22,1.32-1.77,2.54-3.61,3.7-5.49a46.86,46.86,0,0,0-10-19.46l-.15-.2a25,25,0,0,1-5.58.14c-1.37-.09-2.75-.21-4.07-.4a56.08,56.08,0,0,1-2,19.58,1.64,1.64,0,0,1-.14.33l1.86,1.27Z" transform="translate(-135.76 -329.53)"/><path class="cls-4" d="M464.4,685.14c3.93,13.25,15.51,21.92,26,30.06q17.91,13.92,36.88,26.43c4.15,2.74,7.85,5.41,12.56,1.86,2.68-2,4.66-5,6.59-7.71a133,133,0,0,0,9.26-15.26c5.89-11.32,10.74-23.83,11.47-36.7l-1.59-.24a22.41,22.41,0,0,1-6.09,9.93c-3,11.5-6.93,22.88-12.71,33.3-2.46,4.45-5.39,9.9-9.28,13.32-3.73,3.27-7.41-.75-10.69-3-11.82-8.13-23.85-16-35.43-24.49-2.34-1.71-4.64-3.49-6.85-5.36a1.34,1.34,0,0,1-1.37-1.18c-5.74-5.09-10.72-10.9-13.89-18.07a1.5,1.5,0,0,1-.09-1C467.51,686.38,465.92,685.75,464.4,685.14Z" transform="translate(-135.76 -329.53)"/><path class="cls-3" d="M408.19,861.46l.09.85h4.31V841c-3.64-.14-7.22-.45-10.72-.92C404.36,847.17,407.2,853.84,408.19,861.46Z" transform="translate(-135.76 -329.53)"/><path class="cls-5" d="M401.79,918.94c.77-2.33.54-5,.4-7.38A58.13,58.13,0,0,0,399,895.91l-57.9,6.58-16.52,1.88c-.8.09-1.64.24-2.5.38a89,89,0,0,0,7.74,19.37c2.31,4.45,4.54,9.55,8.05,13.29a54.75,54.75,0,0,1-3.81-13.73c-.3-1.89,2.6-2.7,2.89-.8,1.42,9,4.22,18.32,11.93,24,6.23,4.55,13.94,5.92,21.5,5.64a39.47,39.47,0,0,1-11.17-9.64,37.16,37.16,0,0,1-8.05-25.73c.14-1.92,3.14-1.93,3,0a34.24,34.24,0,0,0,7.31,23.74c5,6.4,16.1,15,24.77,11.47,7-2.8,2.37-13.23-.17-17.88-2-3.72-5-6.7-7.36-10.22-4.51-6.87-3.43-14.81-2-22.47A1.37,1.37,0,0,1,379,901l.13,0a16.23,16.23,0,0,1,7.84,8.1c1.68,3.49,2,7.81,4,11.1C393.9,925.12,400.17,923.87,401.79,918.94Z" transform="translate(-135.76 -329.53)"/><path class="cls-4" d="M325.57,901.26l26.24-3,51.94-5.9c0-3.11,0-6.21,0-9.32-14.64-5-30.07-5.65-45.43-5.69-15.07,0-30.42-.25-44.81,4.71a70.41,70.41,0,0,0,1.33,12.38c.7,3.08,1.2,6.68,4.91,7.46C321.37,902.26,324,901.44,325.57,901.26Z" transform="translate(-135.76 -329.53)"/><path class="cls-5" d="M451.25,676.63a1.26,1.26,0,0,1,1,.34,1.5,1.5,0,0,1,1.07.1c24.62,11.75,116.08,46.57,110.34-8.87-.19-1.92,2.81-1.9,3,0a42.14,42.14,0,0,1-.38,12.48A49.72,49.72,0,0,0,609.22,667c11.56-11.67,14.64-30,8.16-45-.76-1.75,1.83-3.28,2.59-1.51a45.35,45.35,0,0,1,3.66,16.88c5.7.94,9.21-9.19,10-13.38,1.1-5.77-.48-11.75.67-17.6.58-3,1.83-5.06,3.08-7.7,2.22-4.71.86-7.75,1-12.62.13-4.15,5.46-19.58-2.07-20.42l-.14,0-.26,0c-3.94-.74-8.71,1.83-10.47,5.37l0,.06c-.92,3.09-.19,6.28-1.43,9.38-1.33,3.37-3.16,6.6-4.73,9.86-.72,1.48-2.66.57-2.8-.75-.6-5.79-1.2-11.58-2.05-17.33-.51-3.45-.86-7.48-2.21-10.91V585a1.76,1.76,0,0,1-.06.41c-.64,4-4.59,8-8.81,7.65-19.08,0-38.15-.69-57.23-.71a1.36,1.36,0,0,1-1.29-.8,1.39,1.39,0,0,1-1.12-1.4c0-2.89-.06-5.79-.11-8.68h0a31.32,31.32,0,0,0-23.19-9.11c-9.13.13-19.3,0-26,7.18a1.84,1.84,0,0,1-.27.23v13.19a1.41,1.41,0,0,1-.41,1l0,0,0,0a1.38,1.38,0,0,1-1,.4H435c-6.44.74-11.8-6.09-13.23-11.71a2.34,2.34,0,0,1-.05-.3.25.25,0,0,0,0-.08V560.86a1.51,1.51,0,0,1,2.33-1.23h68.62a1.41,1.41,0,0,1,1,.41l0,0,.05,0a1.38,1.38,0,0,1,.4,1v9.2c7.16-6.15,17.15-6.25,26.33-6.38a34.25,34.25,0,0,1,22.9,7.87c-.07-3.56-.14-7.12-.16-10.69a1.45,1.45,0,0,1,1.82-1.41,1.52,1.52,0,0,1,.49-.09h65.18a1.43,1.43,0,0,1,.9.3,12.35,12.35,0,0,0-1.63-2.48,1.68,1.68,0,0,1-.32-.54c-9.29-.23-17.58-6.06-26.42-8.34-11.49-3-23.87,1-35.21,3.61a1.3,1.3,0,0,1-1.4.33h0l-.09,0a1.46,1.46,0,0,1-1.6-.66c-6.25-2.66-11.51-8.71-10.34-15.92,1.27-7.81,8.94-11.92,16.28-9.91h0c2.73-2.56,6.76-4,10.25-4.66a27.2,27.2,0,0,1,17.5,2.75c3-.76,6-1.64,9.12-1.56a17,17,0,0,1,10.38,3.71,20.75,20.75,0,0,1,7,.69c-2.52-10.29-7.23-19.91-12.11-29.27a1.43,1.43,0,0,1,0-1.3,1.55,1.55,0,0,1,.59-.75,59.6,59.6,0,0,0,18.28-19.88c2.17-3.88,4.73-8.46,4.47-13s-2.54-9.24-4.72-13.08a45.66,45.66,0,0,0-46.24-22.47,1.57,1.57,0,0,1-1.52-.65,34.28,34.28,0,0,1-12.71,9.24c-13.13,5.69-28.25,3.73-41.2-1.54-5.67-.58-9-6.17-11-11l-.32-.81a108.8,108.8,0,0,0-74.13,9.46,96.84,96.84,0,0,0-16.18,10.47c-2.85,2.3-6.49,4.87-7.6,8.55-1,3.43-.33,7.79.37,11.21a41.77,41.77,0,0,0,21.72,28.45,1.5,1.5,0,0,1,.77.4l.2.11a1.5,1.5,0,0,1,.54,2.05,56.44,56.44,0,0,0-11.41,32.08c4.3-5.67,11.13-3.5,17.45-2a1.29,1.29,0,0,1,.61-1.78c4.42-2.21,9.28-3.92,14.3-3.6a15.86,15.86,0,0,1,5.82,1.47,12.13,12.13,0,0,1,1.6.93,1.62,1.62,0,0,1,.6-.44,20.47,20.47,0,0,1,21.32,3.69,1.32,1.32,0,0,1,.94-.77c5.67-1.47,13.36-1.6,17.35,2.51l.14,0c22-4.78,24.35,34.48,2.39,33.48-13.27-.61-25.61-7-38.38-10A70.37,70.37,0,0,0,414.82,552a1.52,1.52,0,0,1-.85.73,12.23,12.23,0,0,1-4.08.69.34.34,0,0,1-.05.14,18.4,18.4,0,0,0-1,13.4c.44,1.4,2.59,4.31,2.22,6-.46,2.1-4.4,4.23-5.87,5.29-2.09,1.5-5.26,4.71-8,4.82-4.34.18-5.13-6.68-5.56-9.71-.94-6.58,0-13.22.95-19.74a1.23,1.23,0,0,1,.58-.93c1.15-7.9-7-15.23-14.7-12.55-3.61,1.25-7.13,4.55-10,8,9.79,1,15.63,9.94,16,19.28.26,6.35-1.65,12.42-3.59,18.38-1.16,3.59-2.41,7.28-2.16,11.11.28,4.36,2.56,8.31,4.61,12.05.94,1.69-1.65,3.2-2.59,1.51-2.32-4.21-4.73-8.65-5-13.56s1.59-9.69,3.08-14.35c3.4-10.6,5.17-30.1-10.58-31.45a1.51,1.51,0,0,1-1.31-1c-.93,1.25-1.76,2.48-2.46,3.6-3.93,6.27-1.46,12.54-3.38,19.2-1.59,5.54-5.49,10.5-5.51,16.43,0,6.46,4.37,11.92,7,17.53,2.13,4.56,2.72,9,2.92,14,.27,6.74,1,12.89,8.5,14.44,4.52.93,9.93.4,13.84-2.23a67.22,67.22,0,0,1,4.48-26.78c.68-1.79,3.58-1,2.9.8-6.63,17.39-6.57,37.63,5,53C412.72,676.77,431.93,677.75,451.25,676.63Zm171.47-60.84a38.51,38.51,0,0,0,3.1-14.35c0-4.26-1.25-8.44-1-12.68.35-7,5.48-11.94,10.45-16.21,1.46-1.25,3.59.86,2.12,2.12a55.55,55.55,0,0,0-5.31,5,1.55,1.55,0,0,1,.19.24,23.1,23.1,0,0,1,3,17.18c-.39,1.89-3.28,1.09-2.9-.8a19.83,19.83,0,0,0-2.27-14.07c-.2.31-.41.63-.59,1-2.44,4.35-1.49,8.3-1,13a41.13,41.13,0,0,1-2.9,20.39C624.89,618.35,622,617.57,622.72,615.79Zm-85.62,45.6c-6.78-4.2-14.24-2.29-20.91,1.05-1.73.86-3.24-1.73-1.52-2.59,7.64-3.83,16.24-5.82,23.94-1.05C540.25,659.82,538.74,662.41,537.1,661.39ZM488.44,605c1.14-7.16,6.32-15,14.44-11.6,1.75.73,1,3.63-.8,2.89-6.22-2.59-9.6,3.33-10.61,8.7-.64,3.45-.32,7.38,3.19,9.22,2.47,1.28,5.7,1,8.57.67a23.69,23.69,0,0,1-1.84-5.17c-.45-1.88,2.44-2.67,2.89-.79a19.28,19.28,0,0,0,15.16,14.94c8.11,1.84,15,.39,17.63-8.22,2.12-7.09-.1-13.31-3-19.8-2-4.46-6.12-8.38-6-13.5.06-1.93,3.06-1.93,3,0-.12,4.48,4.44,9.37,6.23,13.5,1.48,3.43,3,6.85,3.42,10.59a25.47,25.47,0,0,1-.27,7.91c2.52.23,4.61.42,6-2.74a24.09,24.09,0,0,0,1.68-8.25c.05-4.06-2.48-7.6-6.82-7.33-1.93.11-1.92-2.89,0-3,5.84-.36,10,4.62,9.82,10.33-.14,3.63-.81,9.34-3.24,12.21s-5.14,2-8.16,1.72a17.2,17.2,0,0,1-4.53,7.32c-5.44,5-15.21,3.28-21.36.6a20.84,20.84,0,0,1-9-7.53c-4.62.59-10.15,1.15-13.79-2.39C488.27,612.54,487.86,608.6,488.44,605ZM527.33,634c1.78-.74,2.55,2.16.8,2.89-4.9,2-9.64-2.47-8.6-7.43.4-1.89,3.29-1.09,2.89.8C521.8,633.27,524.73,635.11,527.33,634Zm-75.8-4.54a11.45,11.45,0,0,1,3.35-6.11,1.66,1.66,0,0,1,1.24-1.12,27.21,27.21,0,0,1,6-3.49c1.75-.77,3.27,1.81,1.51,2.6a26,26,0,0,0-5.18,2.89c3.16,4.43,9.16,6.94,14,8.92A91.81,91.81,0,0,0,487,637.62a207.16,207.16,0,0,0,31.27,4.28c20,1.33,41.83-2.62,58.35-14.5a9.16,9.16,0,0,0-1.84-1.6c-1.61-1.06-.1-3.66,1.51-2.59a12.53,12.53,0,0,1,5.71,11c-.08,1.93-3.08,1.93-3,0a9.78,9.78,0,0,0-.79-4.28c-18,13-42.07,16.66-63.83,14.65-11.37-1.05-22.93-2.42-33.95-5.53-7.93-2.24-19-5.6-24.23-12.7a8.8,8.8,0,0,0-1.81,3.93C454.06,632.19,451.17,631.38,451.53,629.49ZM416.22,468.86a1.54,1.54,0,0,1-.62-1.16,1.7,1.7,0,0,1-.15-.22,5.39,5.39,0,0,1,1.46-7,4.91,4.91,0,0,1,6.27.3C426.79,464.49,420.58,472.22,416.22,468.86Zm14.61-18.2c-3.58,4-9.3,6.59-14.61,5.34a1.31,1.31,0,0,1-.21-.08,1.34,1.34,0,0,1-1.31-.39c-3.41-3.39-2.92-8.08.39-11.33,2.8-2.75,8.54-7.27,12.61-5C431.56,441.4,434.09,447,430.83,450.66ZM574.4,476.8c1.91.18,1.92,3.18,0,3-10.3-.95-19.53,1.33-28.71,5.93-6.74,3.39-13.28,6.83-21,7.2-1.93.1-1.92-2.9,0-3,9.15-.44,16.59-5.81,24.75-9.3A50.79,50.79,0,0,1,574.4,476.8Zm-116.34-7.27c12.71-1.66,25.61-3.33,38.42-1.68,12.22,1.58,24.33,8.49,36.82,6,1.89-.37,2.69,2.53.8,2.9-12,2.35-22.79-3.28-34.33-5.4-13.79-2.54-27.95-.65-41.71,1.15C456.15,472.78,456.17,469.77,458.06,469.53ZM498.69,499a89.62,89.62,0,0,0-50.13-2.61c-1.88.45-2.68-2.45-.8-2.89a91.8,91.8,0,0,1,44.62.41c16.14,4.29,32.14,14.6,49.29,9,1.85-.6,2.63,2.3.8,2.89C527.32,510.79,512.86,503.93,498.69,499Zm-132,82.43c-1.87,6.16-.1,12.11,1.94,18,.64,1.83-2.26,2.61-2.89.8-2.42-6.93-4.1-13.83-1.47-20.94a24.19,24.19,0,0,1,12.38-13.42c1.73-.83,3.25,1.76,1.51,2.59A21.34,21.34,0,0,0,366.72,581.47Z" transform="translate(-135.76 -329.53)"/><path class="cls-2" d="M472.7,688.34A52.23,52.23,0,0,0,485.24,704c9.11-2.65,17.62,1.45,24.55,7.33a16.57,16.57,0,0,1,5.55-5,7.57,7.57,0,0,1-2.23-6.09,1.48,1.48,0,0,1,.11-.54A240.4,240.4,0,0,1,472.7,688.34Z" transform="translate(-135.76 -329.53)"/><path class="cls-2" d="M551,710.42a22,22,0,0,0-4,3.07,1.53,1.53,0,0,1-2.12,0,33.55,33.55,0,0,0-8.57-6.15,3,3,0,0,1-.26.24,8,8,0,0,1-1.06.69,49.73,49.73,0,0,1,9.2,17c.64-1.15,1.25-2.31,1.84-3.49A119.18,119.18,0,0,0,551,710.42Z" transform="translate(-135.76 -329.53)"/><path class="cls-6" d="M491.15,562.63H424.7v19.46c1.18,4.39,5.23,9.92,10.29,9.34h56.16Zm-13.7,16.1c-2.62-5.23-6.68-8.38-12.67-6-3.77,1.52-6.43,4.68-9,7.73-1.24,1.48-3.35-.65-2.12-2.12,3.73-4.47,8.12-9.06,14.3-9.49,5.94-.42,9.57,3.39,12.05,8.33C480.9,578.94,478.32,580.45,477.45,578.73Z" transform="translate(-135.76 -329.53)"/><path class="cls-7" d="M589.45,547.48c6.93,2.64,14.27,6.9,21.93,6.44,5.64-.33,9.81-4.91,7-10.37-2.56-5-8.72-5.62-13.62-4.92-1.89.27-2.7-2.62-.79-2.89a23.55,23.55,0,0,1,8,.16,18.25,18.25,0,0,0-5.5-5.13c-4.27-2.35-10.16-1.55-14.65-.57-1.88.41-2.68-2.48-.8-2.9.8-.17,1.61-.33,2.45-.48-4.46-2.07-9.29-.81-14.16.3a1.3,1.3,0,0,1-.89.19,27.78,27.78,0,0,1-7.9.88c-1.91-.14-1.92-3.14,0-3a16.75,16.75,0,0,0,2.84-.06,24.33,24.33,0,0,0-9-1.14c-5.08.32-12.79,2.55-13.67,8.43-.28,1.91-3.17,1.09-2.89-.8a8.87,8.87,0,0,1,1-3c-5.68-.87-11.28,2.78-11.39,9.05-.1,5.63,4.46,9.89,9.38,11.68C561.09,546.24,575.19,542,589.45,547.48Z" transform="translate(-135.76 -329.53)"/><path class="cls-8" d="M543.5,577.38l0-1.5a31.3,31.3,0,0,0-23-8.93c-9.13.13-19.31,0-26,7.18a2.34,2.34,0,0,1-.37.29v1.22c7.15-6.08,17.09-6.18,26.23-6.31A34.27,34.27,0,0,1,543.5,577.38Z" transform="translate(-135.76 -329.53)"/><path class="cls-7" d="M597.07,499c2,3.92,4,7.9,5.72,12,5.11-.41,10.25-.5,14.83,2.15a1.5,1.5,0,0,1-1.51,2.59c-3.73-2.16-8-2.14-12.11-1.84a94.55,94.55,0,0,1,3.32,9.64,25.64,25.64,0,0,1,14.17,2.76c1.73.87.21,3.46-1.51,2.59a22.62,22.62,0,0,0-11.9-2.42c.07.3.15.6.22.89a1.47,1.47,0,0,1-.08.94c3.71,2.17,6.43,6,8.75,9.48a11,11,0,0,1,4.85,6.35c2,6.58-2.44,11.58-8.67,12.58,2.55,3.76,3.15,8.29,3.87,12.79.79,5,1.38,9.92,1.92,14.9a33.78,33.78,0,0,0,2.68-6.12c.84-2.86,0-5.77,1.06-8.59a1.58,1.58,0,0,1,.38-.6,13.22,13.22,0,0,1,8.18-6.13c4-14.66,12.63-27.35,19.53-40.74A171.66,171.66,0,0,0,597.07,499Z" transform="translate(-135.76 -329.53)"/><path class="cls-6" d="M609.21,584.85V562.63h-63c.07,8.9.4,17.8.45,26.7,18.89,0,37.77.69,56.65.71C606.25,590.31,608.66,587.53,609.21,584.85Zm-36-6.46c-2.62-5.22-6.68-8.38-12.67-6-3.77,1.52-6.43,4.68-9,7.72-1.24,1.49-3.35-.65-2.12-2.12,3.73-4.47,8.12-9,14.3-9.49,5.94-.42,9.57,3.39,12.05,8.34C576.68,578.6,574.1,580.12,573.23,578.39Z" transform="translate(-135.76 -329.53)"/><path class="cls-7" d="M369.89,542.45c2.9-2.89,6.28-5.36,10.41-5.89,9.44-1.2,17.11,8.09,15.68,17a1.23,1.23,0,0,1-.57.91c-.79,5.51-1.57,11.14-1.07,16.73.24,2.68.51,8.2,4.68,7.53,1.55-.25,5-3.1,6.13-4.24,3.17-3.34,1.43-4.34.57-7.51a21,21,0,0,1,1.12-14c-5.86-1.68-9.93-8-9.23-14.61.43-4,2.34-8.57,5.81-10.81a11.73,11.73,0,0,1,6.39-1.5c.05-2,.18-4,.42-6a21,21,0,0,0-13.43,3.33c-1.64,1-3.14-1.56-1.52-2.59a23.91,23.91,0,0,1,15.39-3.67,58,58,0,0,1,2.43-9.41,1.79,1.79,0,0,1-.34,0,57.59,57.59,0,0,0-22.39,4.55c-1.76.74-3.29-1.84-1.51-2.59a61.18,61.18,0,0,1,23.9-5,1.35,1.35,0,0,1,1.21.63,59.14,59.14,0,0,1,6.38-11.9c-13.36-.51-26.47,3.91-39.54,6.18-12.5,2.17-25.14,4.11-36.45,10.16,7.28,11.67,21,18.76,25.51,32.61C369.88,542.38,369.88,542.41,369.89,542.45Z" transform="translate(-135.76 -329.53)"/><path class="cls-9" d="M380,496.69c12.11-2.11,24.24-6,36.58-6.32a44.55,44.55,0,0,1-18.47-27.47c-1.1-5.29-1.9-11.66,1.34-16.33,3.87-5.58,11.11-10,16.82-13.55a112,112,0,0,1,50.91-16.1,29,29,0,0,1-8.86-39.87c1-1.64,3.61-.13,2.59,1.52a26,26,0,0,0,11.76,37.91,2.06,2.06,0,0,1,.33.2,107.84,107.84,0,0,1,24.45,2.39,36.14,36.14,0,0,1-.19-17.63c.43-1.89,3.32-1.09,2.89.79a32.54,32.54,0,0,0,0,15.51c.19.76.44,1.64.74,2.56a1.34,1.34,0,0,1,.17.51c1.45,4.22,4,9.34,8.13,10.3a1.57,1.57,0,0,1,1.06.07c12.3,5.24,27.07,7.29,39.65,1.83,13.44-5.85,18.38-17.38,21.27-30.92.41-1.89,3.3-1.08,2.9.8-1.71,8-4.18,15.29-8.45,21.26,20-2.37,39.74,7.23,49.23,25.31,2.1,4,4.18,8.69,4.4,13.27.22,4.38-1.8,8.61-3.74,12.42a62.09,62.09,0,0,1-17.66,21,173.83,173.83,0,0,1,54.23,23.39,89.29,89.29,0,0,0,7.1-18.93c2.76-11.72,1.63-24.07-5.79-33.87A37.49,37.49,0,0,0,626.63,452c-1.91-.15-1.92-3.15,0-3a40,40,0,0,1,8.09,1.49c5.25-7.71,6.15-17.26,3.26-26.13a44,44,0,0,0-7.59-13.69c-3.06-3.83-7.65-9.78-13.24-9a1.55,1.55,0,0,1-.57,0,92.9,92.9,0,0,1-15.75,29.57c-1.19,1.53-3.29-.61-2.12-2.12,10-12.82,17.6-28.25,17.83-44.79.21-15.77-6.41-31.25-19.74-40.18-26-17.44-62.76-14.28-88.17,2.46-1.62,1.07-3.12-1.53-1.52-2.59,2-1.33,4.1-2.56,6.21-3.72-16.11-5.54-33.43-2.22-48.21,5.73-7.52,4-15.44,9.25-20.5,16.26-6,8.33-4.55,18-2.61,27.44.39,1.89-2.5,2.69-2.89.8-1.21-5.88-2.29-12-1.64-17.8a93.42,93.42,0,0,0-61.86,17.06c-9.24,6.67-19.53,16-20.09,28.23a25.81,25.81,0,0,0,14.65,24.1l2.59-1c1.8-.71,2.57,2.19.8,2.89-11.07,4.4-23.17,9.28-29.88,19.75-3.45,5.39-4.23,11.39-4.32,17.67-.08,5.78-.18,11.7.77,17.41a28.81,28.81,0,0,0,2.76,8.37C354.42,501,367.25,498.9,380,496.69Z" transform="translate(-135.76 -329.53)"/><path class="cls-10" d="M418.75,462.84A2.32,2.32,0,0,0,418,466a1.67,1.67,0,0,1,.17.57,1.87,1.87,0,0,0,2.09-.88c.47-.61,1.31-2,.76-2.76S419.37,462.45,418.75,462.84Z" transform="translate(-135.76 -329.53)"/><path class="cls-7" d="M415.64,526.51c1.54.2,3,.4,4.33.49,1.92.12,1.93,3.12,0,3-3.41-.22-6.94-.72-10.36-.67-4.69.06-7.14,2.17-8.47,6.69-2.22,7.47,3.07,16.28,11.33,14a1.52,1.52,0,0,1,.75-.63c19.16-7.84,38-6.13,57.29.15,5.05,1.65,10.09,3.35,15.26,4.58,4.74,1.13,12,3.14,16.45.24,10.46-6.78,6-28.45-7.61-26.41a11.15,11.15,0,0,1,.82,3.58c.14,1.93-2.86,1.92-3,0-.57-8-10.26-7.37-15.87-6a20.28,20.28,0,0,1,2.21,3.16,1.5,1.5,0,0,1-2.59,1.52,17.56,17.56,0,0,0-20.86-8,10.57,10.57,0,0,0,3,1.58c1.84.57,1.05,3.46-.8,2.89-3.69-1.14-6-4.39-9.76-5.42-5-1.38-10.35.33-14.87,2.53a20.11,20.11,0,0,0,3.74.44,1.5,1.5,0,0,1,0,3C430.72,527.19,420.49,521.27,415.64,526.51Z" transform="translate(-135.76 -329.53)"/><path class="cls-10" d="M425.28,442.28c-4.52-.5-12.82,6.07-8.77,10.79a1.7,1.7,0,0,1,.5,0c3.38.8,6.41-.48,9.12-2.4,1.53-1.09,3.29-2.58,3.19-4.72S427.1,442.48,425.28,442.28Z" transform="translate(-135.76 -329.53)"/><path class="cls-11" d="M466.88,833v-1.28c-1-.33-2-.66-3-1a1.46,1.46,0,0,1-.43.32c-1.38.7-2.8,1.35-4.24,2Z" transform="translate(-135.76 -329.53)"/><path class="cls-12" d="M497.87,1113.45c-11.95,0-23.94-1.65-35.77-3.22-24.72-3.28-49.82-7.48-74.7-3.38-4.45,7.12-1.78,18.11,7.32,20,6,1.23,13.48-1.27,19.6-1.93a211.89,211.89,0,0,1,41.91-.35c13.9,1.27,27.66,5.65,41.59,6,6.34.15,13.38-.82,18.71-4.53,6.46-4.49,5.8-11.54,3.76-18.08C514.18,1112.81,505.44,1113.48,497.87,1113.45Z" transform="translate(-135.76 -329.53)"/><path class="cls-11" d="M728.11,707.76a27.23,27.23,0,0,0-10.31-2,25.63,25.63,0,0,0-18.57,8.74,1.33,1.33,0,0,1-1.81.2c-.1-.06-.21-.12-.32-.2a29.8,29.8,0,0,0-14-6.07c-3-.46-3.59,0-6,1.3a4.11,4.11,0,0,1-2.7.83c-3-.36-6.06-4.07-8.37-5.76-3.38-2.48-6.41-5.39-9.81-7.83a31.24,31.24,0,0,0-16.82-6c-3.66-.29-4.45-1.26-6.1-4.53-4.28-8.5-12.09-15.74-21.58-17.72-10.55,11-26.5,16.77-41.67,15.53-.85,14.08-6.33,27.74-13,40a116.91,116.91,0,0,1-11.3,17.39c-3.48,4.35-8.13,8.41-14,6.21-3.58-1.34-6.8-4-9.94-6.15q-5.43-3.64-10.78-7.41-10.84-7.63-21.34-15.76c-11.55-8.92-24.35-18.36-28.42-33.11a1.39,1.39,0,0,1,.3-1.35c-3.84-1.59-7.18-3.08-9.81-4.34l-.17-.1a2.26,2.26,0,0,1-.39.07c-18.85,1.1-37.48,0-50.66-14.38-11.37,3.91-22.93,7.49-34.06,12-10.66,4.36-20.9,10.23-27.51,19.94a1.45,1.45,0,0,1-.86.61c-17.29,25.24-17,58.08-18,87.45-.57,15.94-1.45,32.06-5.4,47.58-3.44,13.53-15.12,34.14-4,46.88a1,1,0,0,1,.08.11l.16-.08c15.13-5.69,31.4-5.45,47.33-5.42,15.47,0,31.06.66,45.81,5.66a49.68,49.68,0,0,0,0-24.44c-1.33-5.59-3.64-10.83-5.5-16.24a1.22,1.22,0,0,1-.36-1.06c-.35-1-.69-2.11-1-3.18-1.93-6.93-5.22-13.1-7.56-19.85a76.85,76.85,0,0,1-3.64-20.4c-.13-1.93,2.87-1.91,3,0,.06.89.13,1.77.2,2.64,5.74-27.28,9.95-57.49-7.91-81.18-1.16-1.54,1.44-3,2.59-1.52,19.75,26.2,13.3,60.31,6.84,89.91a1.43,1.43,0,0,1-.45.79,59.71,59.71,0,0,0,3.36,11.87c1.44,3.57,3.37,6.89,4.61,10.54,1,3,1.7,6,2.58,9a112.74,112.74,0,0,0,22.79,1,1.65,1.65,0,0,1,1.18-.08c12.28-.81,24.58-3.58,35.18-8.53-9.6-3.42-19.17-6.94-29.48-7.15-1.93,0-1.93-3,0-3,15.38.32,29.07,7.72,43.68,11.56a1.83,1.83,0,0,1,.48,0c7,.52,14.11-2.11,20.66-4.37,4.29-1.48,8.5-3.18,12.64-5,.19-1,1.14-1.72,2.1-1l0,0c2-.91,3.93-1.85,5.87-2.84,1.72-.87,3.24,1.72,1.52,2.59-1.52.78-3,1.52-4.59,2.24,5.84,3.92,12.58,7,18.91,9.75,7.37,3.19,13.9,2.76,20.26-2.26,3.18-2.5,6.1-5.22,10-6.21a1.42,1.42,0,0,1,.48-.14l.3,0a9.43,9.43,0,0,1,.95-.14,1.52,1.52,0,0,1,.43,0c7.31-.5,14,1.62,21,3.71,10,3,19.26,4.12,28.44-2,1.62-1.07,3.12,1.53,1.51,2.59a29.15,29.15,0,0,1-11.9,4.64,1.44,1.44,0,0,1,.74,1l11.29-.34a1.34,1.34,0,0,1,1.13.5,1.4,1.4,0,0,1,1.35,1.43v5c9.54-8.45,9.7-22.56,6.24-34.1-3.57-11.93-10.37-22.58-14-34.48a53.32,53.32,0,0,1-1.75-7.65,1.31,1.31,0,0,1-.26-2c-2.31-20.32,7.46-39.54,17.34-57.28.95-1.69,3.54-.17,2.6,1.52-6.61,11.85-13.3,24.05-16.18,37.43a50.57,50.57,0,0,0-.84,16,69.87,69.87,0,0,1,30.46-13.4c1.89-.33,2.69,2.56.79,2.89a67.34,67.34,0,0,0-30.79,13.93c1.27,7.62,4,15,7.46,22.48a1.48,1.48,0,0,1,.66-.42c16.39-5.36,32.42,1.82,47.93,6.78,7.51,2.4,16.76,5.67,24.65,3.39,3.78-1.09,6.51-3.93,10.17-5.19,2.69-.94,5.17-.38,7.84.42,7.32,2.19,14.3,3.44,21.7,2.37A156.89,156.89,0,0,1,728.11,707.76ZM707,760.49c-.88,1.72-3.46.2-2.59-1.52a27.66,27.66,0,0,0,3-12.16c0-1.93,3-1.93,3,0A31.18,31.18,0,0,1,707,760.49Z" transform="translate(-135.76 -329.53)"/><path class="cls-12" d="M534.87,940.29q4-4.23,8.08-8.47v-62h-8.08Z" transform="translate(-135.76 -329.53)"/><path class="cls-4" d="M740.26,768.1q-1.66-12.35-2.49-24.78-.45-6.87-.64-13.74c-.12-4.32.64-9.44-.47-13.63-.78-2.93-3-5.18-5.79-6.82a154,154,0,0,0,3.87,82.8.2.2,0,0,0,0,.07l.75-.17c1.53-.38,5.45-1,6.46-2.19,1.93-2.33.68-6.33.23-9Q741.11,774.39,740.26,768.1Z" transform="translate(-135.76 -329.53)"/><path class="cls-3" d="M604.25,863.77q5.28.12,10.57-.09V836l-10.58.31A259.5,259.5,0,0,1,604.25,863.77Z" transform="translate(-135.76 -329.53)"/><path class="cls-3" d="M590.56,836.26H564v26.28h27.06A168.35,168.35,0,0,0,590.56,836.26Z" transform="translate(-135.76 -329.53)"/><path class="cls-5" d="M773.83,744.62a1.2,1.2,0,0,1-1.08,1.23c-6.92,1.11-5.15,12.73-2.39,17,3.48,5.43,10.87,4.47,16.21,3.1,5.68-1.47,11.8-4.45,14.85-9.69,3.85-6.61.62-12.67-4-17.64l-.13-.18a31,31,0,0,1-5.43,3A40.6,40.6,0,0,1,773.83,744.62Z" transform="translate(-135.76 -329.53)"/><path class="cls-5" d="M772.69,768.53a1.51,1.51,0,0,1-.51.4c-6.73,3.46-5,13.47-.09,17.84,4.48,4,10.9,3.94,16.19,1.86,4.25-1.67,9-4.63,11.09-8.85,2.54-5.06.2-10.83-4.54-13.5a.83.83,0,0,1-.15-.11,36.61,36.61,0,0,1-13,3.7A16.69,16.69,0,0,1,772.69,768.53Z" transform="translate(-135.76 -329.53)"/><path class="cls-5" d="M770,766.73a14.2,14.2,0,0,1-4.21-7.74c-1.14-5.17-1.48-12.6,3.59-15.22-4.48-1.42-7.9-4.59-8.58-10.52-1.68-14.68,18.2-15.71,28-15.2,1.92.1,1.93,3.1,0,3-5.32-.28-11.09-.51-16.22,1.13-6.25,2-11.38,8.32-7.18,14.62,6.41,9.63,22,4.44,29.88-.45,4.75-2.93,8.53-7.4,8.08-13.28-.4-5.41-4.21-10.22-8.66-13.07-8.84-5.65-20.14-5.13-30.18-4.54a1.4,1.4,0,0,1-1.32-2.05,1.5,1.5,0,0,1,0-.52,42.45,42.45,0,0,0-4.22-26c-2-3.69-4.89-7.49-9.18-8.58-5.65-1.43-9.56,2.38-10.07,7.79-1,10.79,3.91,24.18-4,33.18l.24.22c6.09,5.56,4,15.63,4.27,23q.56,15.69,2.49,31.28,1.11,9,2.71,18c.1.59.24,1.23.39,1.88a23.72,23.72,0,0,0,19.87-1.76C763.89,776.34,764.74,769.9,770,766.73Zm-7-16.8a24.07,24.07,0,0,1-15,10.12c-1.89.39-2.68-2.5-.8-2.9a21,21,0,0,0,13.26-8.73C761.54,746.83,764.14,748.33,763,749.93Z" transform="translate(-135.76 -329.53)"/><path class="cls-3" d="M511,861.54a1,1,0,0,1,.25,0v-25.9a1.54,1.54,0,0,1-.5.09H480.93v25.81a1,1,0,0,1,.25,0Z" transform="translate(-135.76 -329.53)"/><path class="cls-3" d="M525.39,838.46a1.77,1.77,0,0,1-.41,0h-4.25v6.2c3.12-.66,7-.19,7.88,3.45s-2,6.14-5,7.18a1.27,1.27,0,0,1-1.41-.33,7.06,7.06,0,0,1-1.45-.22v6h34V841.65a2,2,0,0,1,0-.36v-2.83Z" transform="translate(-135.76 -329.53)"/><path class="cls-13" d="M525.52,848.35c-.83-1.39-3.3-1-4.54-.63-.79.22-2.33.58-2.3,1.65a3,3,0,0,0,.89,1.47,4.11,4.11,0,0,0,4,1.08,1.34,1.34,0,0,1,.44,0C525.24,851.1,526.37,849.81,525.52,848.35Z" transform="translate(-135.76 -329.53)"/><path class="cls-11" d="M484.65,832.76h26.07a1.54,1.54,0,0,1,.5.08v-.54a1.51,1.51,0,0,1,1.25-2.3h7.63a78.2,78.2,0,0,1-10.33-6.23c-4.46,2-9,3.85-13.63,5.44A111.94,111.94,0,0,1,484.65,832.76Z" transform="translate(-135.76 -329.53)"/><path class="cls-12" d="M638.54,1090.28c-17.66,4.45-34.35,10.9-51.48,16.94-7.9,2.79-15.75,3.63-24.09,3.74s-16.31,0-24.09-2.86a1.47,1.47,0,0,1-.61-.24c-3.14-2.07-6.43-4.31-8.32-7.61-.55,5.53-.23,11.21,3.83,15,4.29,4,10.84,7.34,16.41,9,6.3,1.9,13.16,2.63,19.68,3.27,6.34.62,13.2,1.24,19.52,0,6.57-1.27,12.57-5,18.43-8.11,5.43-2.84,10.85-5.7,16.36-8.38,5.34-2.61,10.76-5,16.31-7.15.56-.21,1.79-.45,2.65-.79a1.33,1.33,0,0,1,.8-.46c1.34-1.49.41-4-.16-5.58a19.08,19.08,0,0,0-4.75-7A1.58,1.58,0,0,1,638.54,1090.28Z" transform="translate(-135.76 -329.53)"/><path class="cls-13" d="M524.75,832.25a1.36,1.36,0,0,1-1.27.75h-9.26v33.8H561V833.92h-7.48a1.37,1.37,0,0,1-1.23-.68,23.67,23.67,0,0,1-3.25,2.22h7.37a1.49,1.49,0,0,1,1.29,2.19v2.26a1.34,1.34,0,0,1,0,.35V861a1.39,1.39,0,0,1-.33.94,1.46,1.46,0,0,1-1.42,1.81H519.23a1.4,1.4,0,0,1-1.44-1.31,2,2,0,0,1-.06-.44v-7.76a1.4,1.4,0,0,1,.25-.84,6.71,6.71,0,0,1-1.52-1.74c-1.5-2.51-.53-4.57,1.39-5.83a1.43,1.43,0,0,1-.12-.6v-7.46a1.51,1.51,0,0,1,1.25-2.3h5.48a1.68,1.68,0,0,1,.4,0h7.31l-.44-.17C529.44,834.34,527.1,833.33,524.75,832.25Z" transform="translate(-135.76 -329.53)"/><path class="cls-3" d="M466.88,861.66V836H451.36l-.14,0a108.79,108.79,0,0,1-25.37,4.79v20.93Z" transform="translate(-135.76 -329.53)"/><path class="cls-14" d="M615.58,866.66c-3.84.17-7.68.2-11.52.11l-.09,1.52c-.14,1.92-3.14,1.93-3,0a257.12,257.12,0,0,0,.11-34.78,1.3,1.3,0,0,1,.34-1,32.62,32.62,0,0,1-8.62-.41,1.52,1.52,0,0,1,.42.91,169.67,169.67,0,0,1,.48,35c-.17,1.91-3.17,1.92-3,0,.07-.84.13-1.67.19-2.5H564v2.51a1.48,1.48,0,0,1-2,1.37,1.43,1.43,0,0,1-1,.38H546v62.36a1.76,1.76,0,0,1-.06.41,1.36,1.36,0,0,1-.42.94l-10.49,11a1.36,1.36,0,0,1-1.21.44,1.47,1.47,0,0,1-1.9-1.4V869.8H514a1.52,1.52,0,0,1-2.8-.75v-4.53l-.25,0H481.18l-.25,0v2.28a1.5,1.5,0,0,1-3,0V833.72c-.86,0-1.73,0-2.6,0a1.37,1.37,0,0,1-1.07.13c-1.47-.37-2.93-.79-4.38-1.23V866.8a1.5,1.5,0,0,1-3,0v-2.14h-41v3.2a1.5,1.5,0,0,1-3,0V840.92c-2.43.11-4.85.16-7.26.13v27.24a1.5,1.5,0,0,1-3,0v-3h-4.06a48.16,48.16,0,0,1-1.79,16.48,1.69,1.69,0,0,1,0,.55V893.7a1.53,1.53,0,0,1-1.5,1.5l-3.18.37c2.78,8.24,7.91,26.75-3,30.46a8.63,8.63,0,0,1-5.81-.09c2.68,11.22,3.68,22.9,4.45,34.37,1,15.06,1.3,30.18,1.14,45.27-.14,13.65.52,28.62-3.5,41.77-2.87,9.42-5.69,18.21-5.82,28.2a73.88,73.88,0,0,0,5,27.35c19.54-2,39.14.48,58.59,3.12,12.35,1.67,24.72,3.41,37.17,4.15,9.3.56,21.9,1.48,29.17-5.55-.18-28-1.08-56-1.57-83.93-.23-13-1.37-26.46.33-39.33,1.33-10.17,5.85-20.16,15.47-24.83,1.73-.84,3.25,1.75,1.52,2.59a22.15,22.15,0,0,0-9.45,8.7,1.45,1.45,0,0,1,.22.43c3.38,10.24,1.06,21.4,1,31.94-.08,11.69.69,23.37,1.28,35l1.83,36.39q.43,8.73.88,17.46c.15,3.17,0,6.83,1.57,9.69s4.53,4.72,7.16,6.45c8.1,2.94,16.66,2.92,25.18,2.72a71.79,71.79,0,0,0,24.72-4.84,427.9,427.9,0,0,1,47.9-15.64,2.08,2.08,0,0,1,0-.35c1.42-9.78,2.5-19.72,1.69-29.61-.83-10.09-4.46-18.52-8.56-27.65-7.23-16.1-7.83-35.29-8.84-52.65a404.39,404.39,0,0,1,.94-60C624.28,900.11,626.7,881.26,615.58,866.66Z" transform="translate(-135.76 -329.53)"/><path class="cls-3" d="M633.17,1110.17c-7.84,3.47-15.42,7.48-23,11.46-6.86,3.58-13.83,8-21.62,9.1-8,1.15-16.43.21-24.42-.85-7.29-1-14.71-2-21.36-5.33,0,9.44,3.78,18.88,12.69,23.32,5.44,2.7,10.79,1.8,16.58,1a50.69,50.69,0,0,1,13.7,0c17.8,2.34,34.62,8.57,52.75,9.3,16,.64,32.52-2.29,45.93-11.49,12.92-8.88,27.44-29.68,9.88-41.71-7.55-5.17-16.84-5.36-25.56-3.79-4.45.79-8.71,2.25-13.1,3.22-3.48.76-7,.45-10.53,1.11C641.51,1107.5,636.9,1108.52,633.17,1110.17Z" transform="translate(-135.76 -329.53)"/><path class="cls-11" d="M562.22,830.92A2.71,2.71,0,0,1,564,833v.25h26.22l0-.27a1.15,1.15,0,0,1,.68-1.29c-9.4-2.14-18-6.3-27.85-5.28-3,.56-5.47,2.45-7.92,4.5Z" transform="translate(-135.76 -329.53)"/><path d="M376.68,565.87a24.19,24.19,0,0,0-12.38,13.42c-2.63,7.11-.95,14,1.47,20.94.63,1.81,3.53,1,2.89-.8-2-5.85-3.81-11.8-1.94-18a21.34,21.34,0,0,1,11.47-13C379.93,567.63,378.41,565,376.68,565.87Z" transform="translate(-135.76 -329.53)"/><path d="M625.61,616.59a41.13,41.13,0,0,0,2.9-20.39c-.5-4.72-1.45-8.67,1-13,.18-.33.39-.65.59-1a19.83,19.83,0,0,1,2.27,14.07c-.38,1.89,2.51,2.69,2.9.8a23.1,23.1,0,0,0-3-17.18,1.55,1.55,0,0,0-.19-.24,55.55,55.55,0,0,1,5.31-5c1.47-1.26-.66-3.37-2.12-2.12-5,4.27-10.1,9.25-10.45,16.21-.22,4.24,1.08,8.42,1,12.68a38.51,38.51,0,0,1-3.1,14.35C622,617.57,624.89,618.35,625.61,616.59Z" transform="translate(-135.76 -329.53)"/><path d="M504.84,617.63a20.84,20.84,0,0,0,9,7.53c6.15,2.68,15.92,4.42,21.36-.6a17.2,17.2,0,0,0,4.53-7.32c3,.3,5.61,1.29,8.16-1.72s3.1-8.58,3.24-12.21c.23-5.71-4-10.69-9.82-10.33-1.92.11-1.93,3.11,0,3,4.34-.27,6.87,3.27,6.82,7.33a24.09,24.09,0,0,1-1.68,8.25c-1.35,3.16-3.44,3-6,2.74a25.47,25.47,0,0,0,.27-7.91c-.46-3.74-1.94-7.16-3.42-10.59-1.79-4.13-6.35-9-6.23-13.5.06-1.93-2.94-1.93-3,0-.14,5.12,4,9,6,13.5,2.86,6.49,5.08,12.71,3,19.8-2.58,8.61-9.52,10.06-17.63,8.22a19.28,19.28,0,0,1-15.16-14.94c-.45-1.88-3.34-1.09-2.89.79a23.69,23.69,0,0,0,1.84,5.17c-2.87.36-6.1.61-8.57-.67-3.51-1.84-3.83-5.77-3.19-9.22,1-5.37,4.39-11.29,10.61-8.7,1.78.74,2.55-2.16.8-2.89-8.12-3.39-13.3,4.44-14.44,11.6-.58,3.64-.17,7.58,2.61,10.28C494.69,618.78,500.22,618.22,504.84,617.63Z" transform="translate(-135.76 -329.53)"/><path class="cls-10" d="M427.7,439.22c-4.07-2.29-9.81,2.23-12.61,5-3.31,3.25-3.8,7.94-.39,11.33a1.34,1.34,0,0,0,1.31.39,1.31,1.31,0,0,0,.21.08c5.31,1.25,11-1.35,14.61-5.34C434.09,447,431.56,441.4,427.7,439.22Zm-1.57,11.48c-2.71,1.92-5.74,3.2-9.12,2.4a1.7,1.7,0,0,0-.5,0c-4.05-4.72,4.25-11.29,8.77-10.79,1.82.2,3.93,1.44,4,3.7S427.66,449.61,426.13,450.7Z" transform="translate(-135.76 -329.53)"/><path class="cls-10" d="M416.91,460.47a5.39,5.39,0,0,0-1.46,7,1.7,1.7,0,0,0,.15.22,1.54,1.54,0,0,0,.62,1.16c4.36,3.36,10.57-4.37,7-8.09A4.91,4.91,0,0,0,416.91,460.47Zm3.39,5.18a1.87,1.87,0,0,1-2.09.88A1.67,1.67,0,0,0,418,466a2.32,2.32,0,0,1,.71-3.12c.62-.39,1.78-.65,2.31.05S420.77,465,420.3,465.65Z" transform="translate(-135.76 -329.53)"/><path d="M519.53,629.49c-1,5,3.7,9.47,8.6,7.43,1.75-.73,1-3.63-.8-2.89-2.6,1.08-5.53-.76-4.91-3.74C522.82,628.4,519.93,627.6,519.53,629.49Z" transform="translate(-135.76 -329.53)"/><path d="M538.61,658.8c-7.7-4.77-16.3-2.78-23.94,1.05-1.72.86-.21,3.45,1.52,2.59,6.67-3.34,14.13-5.25,20.91-1.05C538.74,662.41,540.25,659.82,538.61,658.8Z" transform="translate(-135.76 -329.53)"/><path d="M542.47,505.86c1.83-.59,1-3.49-.8-2.89-17.15,5.58-33.15-4.73-49.29-9a91.8,91.8,0,0,0-44.62-.41c-1.88.44-1.08,3.34.8,2.89A89.62,89.62,0,0,1,498.69,499C512.86,503.93,527.32,510.79,542.47,505.86Z" transform="translate(-135.76 -329.53)"/><path d="M524.73,492.93c7.68-.37,14.22-3.81,21-7.2,9.18-4.6,18.41-6.88,28.71-5.93,1.92.18,1.91-2.82,0-3a50.79,50.79,0,0,0-24.92,3.83c-8.16,3.49-15.6,8.86-24.75,9.3C522.81,490,522.8,493,524.73,492.93Z" transform="translate(-135.76 -329.53)"/><path d="M458.06,472.53c13.76-1.8,27.92-3.69,41.71-1.15,11.54,2.12,22.36,7.75,34.33,5.4,1.89-.37,1.09-3.27-.8-2.9-12.49,2.46-24.6-4.45-36.82-6-12.81-1.65-25.71,0-38.42,1.68C456.17,469.77,456.15,472.78,458.06,472.53Z" transform="translate(-135.76 -329.53)"/><path d="M454.42,630.29a8.8,8.8,0,0,1,1.81-3.93c5.25,7.1,16.3,10.46,24.23,12.7,11,3.11,22.58,4.48,33.95,5.53,21.76,2,45.78-1.63,63.83-14.65a9.78,9.78,0,0,1,.79,4.28c-.08,1.93,2.92,1.93,3,0a12.53,12.53,0,0,0-5.71-11c-1.61-1.07-3.12,1.53-1.51,2.59a9.16,9.16,0,0,1,1.84,1.6c-16.52,11.88-38.32,15.83-58.35,14.5A207.16,207.16,0,0,1,487,637.62a91.81,91.81,0,0,1-14.58-4.44c-4.87-2-10.87-4.49-14-8.92a26,26,0,0,1,5.18-2.89c1.76-.79.24-3.37-1.51-2.6a27.21,27.21,0,0,0-6,3.49,1.66,1.66,0,0,0-1.24,1.12,11.45,11.45,0,0,0-3.35,6.11C451.17,631.38,454.06,632.19,454.42,630.29Z" transform="translate(-135.76 -329.53)"/><path d="M480,577.21c-2.48-4.94-6.11-8.75-12.05-8.33-6.18.43-10.57,5-14.3,9.49-1.23,1.47.88,3.6,2.12,2.12,2.54-3,5.2-6.21,9-7.73,6-2.41,10.05.74,12.67,6C478.32,580.45,480.9,578.94,480,577.21Z" transform="translate(-135.76 -329.53)"/><path d="M563.77,568.54c-6.18.44-10.57,5-14.3,9.49-1.23,1.47.88,3.61,2.12,2.12,2.54-3,5.2-6.2,9-7.72,6-2.42,10.05.74,12.67,6,.87,1.73,3.45.21,2.59-1.51C573.34,571.93,569.71,568.12,563.77,568.54Z" transform="translate(-135.76 -329.53)"/><path d="M707.43,746.81a27.66,27.66,0,0,1-3,12.16c-.87,1.72,1.71,3.24,2.59,1.52a31.18,31.18,0,0,0,3.45-13.68C710.47,744.88,707.47,744.88,707.43,746.81Z" transform="translate(-135.76 -329.53)"/><path d="M803.56,714.72c-7.92-12.48-24-13-37.32-12.35,1.32-12.76-2.67-38.9-19.93-37.33-7.17.65-9.65,6.94-9.64,13.34,0,9,3.29,21.6-3.32,29a27.65,27.65,0,0,0-2.63-1.61,2.42,2.42,0,0,0-.39-.21c-10.56-5.38-23.77-2.66-32.32,5.82-5.7-4.21-13.68-7.25-20.58-5.75-.26.06-.43.33-.66.39-2,.55-3.39.18-5.35-1.06-1.2-.76-2.34-1.74-3.49-2.58-3.71-2.72-7-5.92-10.82-8.53a32,32,0,0,0-13.4-5.74c-3-.44-5.5,0-7.46-2.64-1.4-1.89-2.21-4.29-3.65-6.22-4.53-6.09-11.14-11.2-18.57-13.19a43.51,43.51,0,0,0,9.57-25.73c5.41.4,9-5,11-9.52,3.7-8.35.65-16.73,3-25.26,1.16-4.19,4.34-7.24,4.4-11.73,0-2.88-.75-5.68-.55-8.58s1.1-5.59,1.5-8.39c.73-5.28.2-13-6-14.11a1.06,1.06,0,0,0-.19-.06,11.07,11.07,0,0,0-2.23-.18c7.36-24.88,28.06-45,29.13-71.88a40.28,40.28,0,0,0-26-39.19c6.1-9.32,6.27-21.16,1.92-31.35-3.48-8.13-11.88-21.91-22.17-21.44,3.25-12.61,3-25.85-2.92-38.43-11.23-24-41.24-32.31-65.78-30.44a88,88,0,0,0-32.39,8.91,1.49,1.49,0,0,0-.9-.89c-18.22-6.84-38.24-2.46-54.61,7.16-7.52,4.42-15.44,10-20,17.63A23.42,23.42,0,0,0,438,369.7a96,96,0,0,0-70.5,22.66c-8.65,7.52-16.14,17.57-14.8,29.63a28.82,28.82,0,0,0,13.88,21.56c-8.61,3.62-17,8-23,15.29-7.57,9.22-7.51,20.59-7.1,32,.37,10.54,3.05,19.64,10.21,27.53s16.88,14.21,20.34,24.81a1.42,1.42,0,0,0,1.27,1q-.69.76-1.35,1.53c-3.6,4.2-7.52,8.78-8.2,14.48-.45,3.77.57,7.48-.35,11.22-.83,3.34-2.55,6.36-3.85,9.52-2.19,5.35-2.57,10.36-.44,15.8,2.42,6.18,6.83,11.5,7.91,18.18.95,5.86-.29,12.32,2.68,17.74,4,7.35,16.34,7.55,23.37,3.79a50.44,50.44,0,0,0,10.44,26.32l0,0c-21.17,7.11-47.67,12.94-61.36,32a1.54,1.54,0,0,0-.89.61c-18.65,26.31-18,61-19.18,91.78-.68,18.12-2.08,36.22-7.75,53.56-4.11,12.55-10.8,29.61-.69,41.18a1.25,1.25,0,0,0,1.61.32,1.47,1.47,0,0,0,.29.32c.23,6.33.15,17.22,5.21,21.35a5.49,5.49,0,0,0,3.34,1.13c1.88,7.85,5.25,15.09,9,22.21,3.19,6,6.15,12.44,12.27,16a1.43,1.43,0,0,0,1,.19,26.77,26.77,0,0,0,5.73,5.82c7.65,5.65,17.58,6.95,26.82,6a1.52,1.52,0,0,0,1.11-.62,21.73,21.73,0,0,0,8.12,1.38c3.46-.12,7-1.51,8.86-4.56,2.51-4,.53-9.57-1-13.59-1.89-4.91-4.89-8.9-8.07-13-4.9-6.35-4.84-12.9-3.62-20.26,6.17,4,5.59,11.2,9.1,17.21a9.35,9.35,0,0,0,1.24,1.68,2.07,2.07,0,0,0,0,.22c3.44,12.8,4.47,26.26,5.27,39.45.91,15,1.15,30,.93,45.08-.09,6.26-.26,12.52-.58,18.78a99.11,99.11,0,0,1-5,26.09,76.35,76.35,0,0,0,1.18,50.18c-1.81.22-3.61.47-5.41.78a1.2,1.2,0,0,0-1.05.91c-7.12,10.43-.16,24.37,11.92,25-7.77,8.23-15.95,20.86-8.31,31.33s24.82,12.73,36.79,13.4c16.49.93,33.23-.45,49.74-.54,13.57-.07,28.81-1.81,38.61-12.33,8-8.56,9.59-22.81.89-31.37a18.39,18.39,0,0,0,7.78-6.16c4-5.89,2.25-13.09,0-19.31-.15-25.53-.91-51-1.42-76.56-.25-12.49-.62-25-.43-37.5.09-6.43.8-13.32,3.22-19.26,2.6,10.91,0,23.33.16,34.35.21,12.81,1.07,25.61,1.71,38.4l1.95,38.8c.16,3,0,6.43.29,9.68-1,6.71-2.35,14.18.59,20.54,2,4.22,6.85,7.26,11.23,9.56-.7,17.07,11,31.94,29.07,29.34,12.41-1.79,23.2.69,35.25,3.5,10.67,2.48,21.5,4.58,32.47,5.2,18.17,1,37.21-2.41,51.95-13.69,11.57-8.86,23.82-26.43,12.59-40.2-5.64-6.9-14.62-9.91-23.31-9.9a67.66,67.66,0,0,0-16.47,2.47c-3.31.83-6.51,2-9.93,2.22-1.21.09-2.39.14-3.57.22v0c.79-5.29-3.62-11.46-7.34-14.85,2-13.7,3.3-27.87-.18-41.44-1.86-7.23-5.59-13.57-8.33-20.46-3-7.57-4.05-15.69-5-23.72a406.85,406.85,0,0,1-2.86-50.08c.08-16.17,1.93-32.09,2.87-48.19.79-13.7-.72-27.6-9.2-38.79a2,2,0,0,0,0-.36V843.69c18.76-14,10.14-38.18,2.17-56a1.25,1.25,0,0,0,.31-.07c19-6.19,37.31,5.07,55.39,9.36,7.35,1.74,15.23,2.7,22-1.24,2.64-1.52,3.93-2.73,7.13-3s5.57.83,8.69,1.69a44.52,44.52,0,0,0,24.4-.18c2.57-.74,6.36-1.6,7.75-4.24a6,6,0,0,0,.59-3.06,26.72,26.72,0,0,0,20.55-2.28c3.48,6.69,11.12,9.35,18.35,8,6.81-1.28,15-6.19,17.5-13,2-5.68-.41-11.81-5.13-15.17a21.17,21.17,0,0,0,6-6c5.09-7.87,1.85-15.57-3.94-21.86C806,731.18,809,723.22,803.56,714.72ZM623.06,569.1a1.58,1.58,0,0,0-.38.6c-1,2.82-.22,5.73-1.06,8.59a33.78,33.78,0,0,1-2.68,6.12c-.54-5-1.13-9.95-1.92-14.9-.72-4.5-1.32-9-3.87-12.79,6.23-1,10.65-6,8.67-12.58a11,11,0,0,0-4.85-6.35c-2.32-3.51-5-7.31-8.75-9.48a1.47,1.47,0,0,0,.08-.94c-.07-.29-.15-.59-.22-.89A22.62,22.62,0,0,1,620,528.9c1.72.87,3.24-1.72,1.51-2.59a25.64,25.64,0,0,0-14.17-2.76,94.55,94.55,0,0,0-3.32-9.64c4.16-.3,8.38-.32,12.11,1.84a1.5,1.5,0,0,0,1.51-2.59c-4.58-2.65-9.72-2.56-14.83-2.15-1.75-4.07-3.71-8.05-5.72-12a171.66,171.66,0,0,1,53.7,23.19c-6.9,13.39-15.49,26.08-19.53,40.74A13.22,13.22,0,0,0,623.06,569.1ZM603.34,590c-18.88,0-37.76-.68-56.65-.71-.05-8.9-.38-17.8-.45-26.7h63v22.22C608.66,587.53,606.25,590.31,603.34,590Zm-168,1.39H435c-5.06.58-9.11-4.95-10.29-9.34V562.63h66.45v28.8Zm58.8-17a2.34,2.34,0,0,0,.37-.29c6.65-7.22,16.83-7,26-7.18a31.3,31.3,0,0,1,23,8.93l0,1.5a34.27,34.27,0,0,0-23.12-8c-9.14.13-19.08.23-26.23,6.31Zm52.64-25c-4.92-1.79-9.48-6-9.38-11.68.11-6.27,5.71-9.92,11.39-9.05a8.87,8.87,0,0,0-1,3c-.28,1.89,2.61,2.71,2.89.8.88-5.88,8.59-8.11,13.67-8.43a24.33,24.33,0,0,1,9,1.14,16.75,16.75,0,0,1-2.84.06c-1.92-.14-1.91,2.86,0,3a27.78,27.78,0,0,0,7.9-.88,1.3,1.3,0,0,0,.89-.19c4.87-1.11,9.7-2.37,14.16-.3-.84.15-1.65.31-2.45.48-1.88.42-1.08,3.31.8,2.9,4.49-1,10.38-1.78,14.65.57a18.25,18.25,0,0,1,5.5,5.13,23.55,23.55,0,0,0-8-.16c-1.91.27-1.1,3.16.79,2.89,4.9-.7,11.06,0,13.62,4.92,2.81,5.46-1.36,10-7,10.37-7.66.46-15-3.8-21.93-6.44C575.19,542,561.09,546.24,546.79,549.39Zm-207.43-68c.09-6.28.87-12.28,4.32-17.67,6.71-10.47,18.81-15.35,29.88-19.75,1.77-.7,1-3.6-.8-2.89l-2.59,1A25.81,25.81,0,0,1,355.52,418c.56-12.2,10.85-21.56,20.09-28.23a93.42,93.42,0,0,1,61.86-17.06c-.65,5.84.43,11.92,1.64,17.8.39,1.89,3.28,1.09,2.89-.8-1.94-9.44-3.41-19.11,2.61-27.44,5.06-7,13-12.22,20.5-16.26,14.78-8,32.1-11.27,48.21-5.73-2.11,1.16-4.19,2.39-6.21,3.72-1.6,1.06-.1,3.66,1.52,2.59,25.41-16.74,62.14-19.9,88.17-2.46,13.33,8.93,20,24.41,19.74,40.18-.23,16.54-7.86,32-17.83,44.79-1.17,1.51.93,3.65,2.12,2.12a92.9,92.9,0,0,0,15.75-29.57,1.55,1.55,0,0,0,.57,0c5.59-.78,10.18,5.17,13.24,9A44,44,0,0,1,638,424.33c2.89,8.87,2,18.42-3.26,26.13a40,40,0,0,0-8.09-1.49c-1.92-.15-1.91,2.85,0,3a37.49,37.49,0,0,1,26.8,14.77c7.42,9.8,8.55,22.15,5.79,33.87a89.29,89.29,0,0,1-7.1,18.93,173.83,173.83,0,0,0-54.23-23.39,62.09,62.09,0,0,0,17.66-21c1.94-3.81,4-8,3.74-12.42-.22-4.58-2.3-9.26-4.4-13.27-9.49-18.08-29.23-27.68-49.23-25.31,4.27-6,6.74-13.25,8.45-21.26.4-1.88-2.49-2.69-2.9-.8-2.89,13.54-7.83,25.07-21.27,30.92-12.58,5.46-27.35,3.41-39.65-1.83a1.57,1.57,0,0,0-1.06-.07c-4.09-1-6.68-6.08-8.13-10.3a1.34,1.34,0,0,0-.17-.51c-.3-.92-.55-1.8-.74-2.56a32.54,32.54,0,0,1,0-15.51c.43-1.88-2.46-2.68-2.89-.79a36.14,36.14,0,0,0,.19,17.63A107.84,107.84,0,0,0,473,416.68a2.06,2.06,0,0,0-.33-.2,26,26,0,0,1-11.76-37.91c1-1.65-1.58-3.16-2.59-1.52a29,29,0,0,0,8.86,39.87A112,112,0,0,0,416.28,433c-5.71,3.52-12.95,8-16.82,13.55-3.24,4.67-2.44,11-1.34,16.33a44.55,44.55,0,0,0,18.47,27.47c-12.34.31-24.47,4.21-36.58,6.32-12.76,2.21-25.59,4.27-37.12,10.44a28.81,28.81,0,0,1-2.76-8.37C339.18,493.05,339.28,487.13,339.36,481.35Zm5,28.39c11.31-6.05,23.95-8,36.45-10.16,13.07-2.27,26.18-6.69,39.54-6.18A59.14,59.14,0,0,0,414,505.3a1.35,1.35,0,0,0-1.21-.63,61.18,61.18,0,0,0-23.9,5c-1.78.75-.25,3.33,1.51,2.59a57.59,57.59,0,0,1,22.39-4.55,1.79,1.79,0,0,0,.34,0,58,58,0,0,0-2.43,9.41,23.91,23.91,0,0,0-15.39,3.67c-1.62,1-.12,3.63,1.52,2.59A21,21,0,0,1,410.23,520c-.24,2-.37,4-.42,6a11.73,11.73,0,0,0-6.39,1.5c-3.47,2.24-5.38,6.85-5.81,10.81-.7,6.65,3.37,12.93,9.23,14.61a21,21,0,0,0-1.12,14c.86,3.17,2.6,4.17-.57,7.51-1.09,1.14-4.58,4-6.13,4.24-4.17.67-4.44-4.85-4.68-7.53-.5-5.59.28-11.22,1.07-16.73a1.23,1.23,0,0,0,.57-.91c1.43-8.93-6.24-18.22-15.68-17-4.13.53-7.51,3-10.41,5.89,0,0,0-.07,0-.1C365.36,528.5,351.64,521.41,344.36,509.74Zm92.26,17.5a1.5,1.5,0,0,0,0-3,20.11,20.11,0,0,1-3.74-.44c4.52-2.2,9.85-3.91,14.87-2.53,3.77,1,6.07,4.28,9.76,5.42,1.85.57,2.64-2.32.8-2.89a10.57,10.57,0,0,1-3-1.58,17.56,17.56,0,0,1,20.86,8,1.5,1.5,0,0,0,2.59-1.52,20.28,20.28,0,0,0-2.21-3.16c5.61-1.39,15.3-2,15.87,6,.14,1.92,3.14,1.93,3,0a11.15,11.15,0,0,0-.82-3.58c13.62-2,18.07,19.63,7.61,26.41-4.48,2.9-11.71.89-16.45-.24-5.17-1.23-10.21-2.93-15.26-4.58-19.26-6.28-38.13-8-57.29-.15a1.52,1.52,0,0,0-.75.63c-8.26,2.29-13.55-6.52-11.33-14,1.33-4.52,3.78-6.63,8.47-6.69,3.42-.05,6.95.45,10.36.67,1.93.12,1.92-2.88,0-3-1.31-.09-2.79-.29-4.33-.49C420.49,521.27,430.72,527.19,436.62,527.24Zm-41.47,79.83c.68-1.81-2.22-2.59-2.9-.8a67.22,67.22,0,0,0-4.48,26.78c-3.91,2.63-9.32,3.16-13.84,2.23-7.51-1.55-8.23-7.7-8.5-14.44-.2-5-.79-9.41-2.92-14-2.62-5.61-7-11.07-7-17.53,0-5.93,3.92-10.89,5.51-16.43,1.92-6.66-.55-12.93,3.38-19.2.7-1.12,1.53-2.35,2.46-3.6a1.51,1.51,0,0,0,1.31,1c15.75,1.35,14,20.85,10.58,31.45-1.49,4.66-3.38,9.37-3.08,14.35s2.7,9.35,5,13.56c.94,1.69,3.53.18,2.59-1.51-2.05-3.74-4.33-7.69-4.61-12.05-.25-3.83,1-7.52,2.16-11.11,1.94-6,3.85-12,3.59-18.38-.38-9.34-6.22-18.3-16-19.28,2.86-3.48,6.38-6.78,10-8,7.74-2.68,15.85,4.65,14.7,12.55a1.23,1.23,0,0,0-.58.93c-.93,6.52-1.89,13.16-.95,19.74.43,3,1.22,9.89,5.56,9.71,2.76-.11,5.93-3.32,8-4.82,1.47-1.06,5.41-3.19,5.87-5.29.37-1.68-1.78-4.59-2.22-6a18.4,18.4,0,0,1,1-13.4.34.34,0,0,0,.05-.14,12.23,12.23,0,0,0,4.08-.69,1.52,1.52,0,0,0,.85-.73A70.37,70.37,0,0,1,457,548.67c12.77,3,25.11,9.39,38.38,10,22,1,19.59-38.26-2.39-33.48l-.14,0c-4-4.11-11.68-4-17.35-2.51a1.32,1.32,0,0,0-.94.77,20.47,20.47,0,0,0-21.32-3.69,1.62,1.62,0,0,0-.6.44,12.13,12.13,0,0,0-1.6-.93,15.86,15.86,0,0,0-5.82-1.47c-5-.32-9.88,1.39-14.3,3.6a1.29,1.29,0,0,0-.61,1.78c-6.32-1.53-13.15-3.7-17.45,2a56.44,56.44,0,0,1,11.41-32.08,1.5,1.5,0,0,0-.54-2.05l-.2-.11a1.5,1.5,0,0,0-.77-.4A41.77,41.77,0,0,1,401,462.1c-.7-3.42-1.41-7.78-.37-11.21,1.11-3.68,4.75-6.25,7.6-8.55a96.84,96.84,0,0,1,16.18-10.47,108.8,108.8,0,0,1,74.13-9.46l.32.81c2,4.84,5.36,10.43,11,11,13,5.27,28.07,7.23,41.2,1.54a34.28,34.28,0,0,0,12.71-9.24,1.57,1.57,0,0,0,1.52.65,45.66,45.66,0,0,1,46.24,22.47c2.18,3.84,4.47,8.58,4.72,13.08s-2.3,9.15-4.47,13a59.6,59.6,0,0,1-18.28,19.88,1.55,1.55,0,0,0-.59.75,1.43,1.43,0,0,0,0,1.3c4.88,9.36,9.59,19,12.11,29.27a20.75,20.75,0,0,0-7-.69,17,17,0,0,0-10.38-3.71c-3.15-.08-6.12.8-9.12,1.56a27.2,27.2,0,0,0-17.5-2.75c-3.49.62-7.52,2.1-10.25,4.66h0c-7.34-2-15,2.1-16.28,9.91-1.17,7.21,4.09,13.26,10.34,15.92a1.46,1.46,0,0,0,1.6.66l.09,0h0a1.3,1.3,0,0,0,1.4-.33c11.34-2.58,23.72-6.58,35.21-3.61,8.84,2.28,17.13,8.11,26.42,8.34a1.68,1.68,0,0,0,.32.54,12.35,12.35,0,0,1,1.63,2.48,1.43,1.43,0,0,0-.9-.3H545.53a1.52,1.52,0,0,0-.49.09,1.45,1.45,0,0,0-1.82,1.41c0,3.57.09,7.13.16,10.69a34.25,34.25,0,0,0-22.9-7.87c-9.18.13-19.17.23-26.33,6.38v-9.2a1.38,1.38,0,0,0-.4-1l-.05,0,0,0a1.41,1.41,0,0,0-1-.41H424a1.51,1.51,0,0,0-2.33,1.23v21.48a.25.25,0,0,1,0,.08,2.34,2.34,0,0,0,.05.3c1.43,5.62,6.79,12.45,13.23,11.71h57.66a1.38,1.38,0,0,0,1-.4l0,0,0,0a1.41,1.41,0,0,0,.41-1V579.74a1.84,1.84,0,0,0,.27-.23c6.66-7.22,16.83-7,26-7.18a31.32,31.32,0,0,1,23.19,9.11h0c0,2.89.1,5.79.11,8.68a1.39,1.39,0,0,0,1.12,1.4,1.36,1.36,0,0,0,1.29.8c19.08,0,38.15.69,57.23.71,4.22.38,8.17-3.66,8.81-7.65a1.76,1.76,0,0,0,.06-.41V561.26c1.35,3.43,1.7,7.46,2.21,10.91.85,5.75,1.45,11.54,2.05,17.33.14,1.32,2.08,2.23,2.8.75,1.57-3.26,3.4-6.49,4.73-9.86,1.24-3.1.51-6.29,1.43-9.38l0-.06c1.76-3.54,6.53-6.11,10.47-5.37l.26,0,.14,0c7.53.84,2.2,16.27,2.07,20.42-.14,4.87,1.22,7.91-1,12.62-1.25,2.64-2.5,4.75-3.08,7.7-1.15,5.85.43,11.83-.67,17.6-.81,4.19-4.32,14.32-10,13.38A45.35,45.35,0,0,0,620,620.48c-.76-1.77-3.35-.24-2.59,1.51,6.48,15,3.4,33.32-8.16,45a49.72,49.72,0,0,1-42.93,13.7,42.14,42.14,0,0,0,.38-12.48c-.19-1.9-3.19-1.92-3,0,5.74,55.44-85.72,20.62-110.34,8.87a1.5,1.5,0,0,0-1.07-.1,1.26,1.26,0,0,0-1-.34c-19.32,1.12-38.53.14-51.12-16.58C388.58,644.7,388.52,624.46,395.15,607.07Zm113.9,107.55a1.52,1.52,0,0,0,2.36-.3,14.14,14.14,0,0,1,6.34-5.88,1.6,1.6,0,0,0,.51-.39c.3.11.61.22.92.31a53.52,53.52,0,0,1-1.67,18.77c-8.05-5.49-16.14-10.93-24-16.64q-2.75-2-5.39-4.11C496,705.08,503.15,709.27,509.05,714.62Zm11.19,14a56.08,56.08,0,0,0,2-19.58c1.32.19,2.7.31,4.07.4a25,25,0,0,0,5.58-.14l.15.2a46.86,46.86,0,0,1,10,19.46c-1.16,1.88-2.38,3.72-3.7,5.49-2.91,3.88-4.44,4-8.46,1.22L522,730.17l-1.86-1.27A1.64,1.64,0,0,0,520.24,728.57Zm23.93-3.3a49.73,49.73,0,0,0-9.2-17,8,8,0,0,0,1.06-.69,3,3,0,0,0,.26-.24,33.55,33.55,0,0,1,8.57,6.15,1.53,1.53,0,0,0,2.12,0,22,22,0,0,1,4-3.07,119.18,119.18,0,0,1-5,11.36C545.42,723,544.81,724.12,544.17,725.27Zm8.3-18.91a1.43,1.43,0,0,0-.48.13,24.45,24.45,0,0,0-6.06,3.93,33.43,33.43,0,0,0-7.91-5.57c.54-1.18,1-2.46,1.51-3.6,6.14-.61,11.61-2.12,16-4.81Q554.17,701.45,552.47,706.36Zm-23.66.11c-4.55.11-12.83,0-12.7-6.24,0,0,0,0,0-.06A102.49,102.49,0,0,0,536,701.49C534.54,704.31,533.05,706.36,528.81,706.47Zm-13.47-.15a16.57,16.57,0,0,0-5.55,5c-6.93-5.88-15.44-10-24.55-7.33a52.23,52.23,0,0,1-12.54-15.62,240.4,240.4,0,0,0,40.52,11.35,1.48,1.48,0,0,0-.11.54A7.57,7.57,0,0,0,515.34,706.32ZM469.24,688c3.17,7.17,8.15,13,13.89,18.07a1.34,1.34,0,0,0,1.37,1.18c2.21,1.87,4.51,3.65,6.85,5.36,11.58,8.46,23.61,16.36,35.43,24.49,3.28,2.26,7,6.28,10.69,3,3.89-3.42,6.82-8.87,9.28-13.32,5.78-10.42,9.72-21.8,12.71-33.3a22.41,22.41,0,0,0,6.09-9.93l1.59.24c-.73,12.87-5.58,25.38-11.47,36.7a133,133,0,0,1-9.26,15.26c-1.93,2.73-3.91,5.69-6.59,7.71-4.71,3.55-8.41.88-12.56-1.86q-18.94-12.5-36.88-26.43c-10.47-8.14-22.05-16.81-26-30.06,1.52.61,3.11,1.24,4.75,1.87A1.5,1.5,0,0,0,469.24,688ZM314.83,894.46a70.41,70.41,0,0,1-1.33-12.38c14.39-5,29.74-4.74,44.81-4.71,15.36,0,30.79.65,45.43,5.69,0,3.11,0,6.21,0,9.32l-51.94,5.9-26.24,3c-1.62.18-4.2,1-5.83.66C316,901.14,315.53,897.54,314.83,894.46Zm97.76-32.15h-4.31l-.09-.85c-1-7.62-3.83-14.29-6.32-21.42,3.5.47,7.08.78,10.72.92ZM387,909.17a16.23,16.23,0,0,0-7.84-8.1l-.13,0a1.37,1.37,0,0,0-2.3.72c-1.43,7.66-2.51,15.6,2,22.47,2.32,3.52,5.31,6.5,7.36,10.22,2.54,4.65,7.14,15.08.17,17.88-8.67,3.49-19.75-5.07-24.77-11.47a34.24,34.24,0,0,1-7.31-23.74c.14-1.93-2.86-1.92-3,0a37.16,37.16,0,0,0,8.05,25.73,39.47,39.47,0,0,0,11.17,9.64c-7.56.28-15.27-1.09-21.5-5.64-7.71-5.64-10.51-14.92-11.93-24-.29-1.9-3.19-1.09-2.89.8a54.75,54.75,0,0,0,3.81,13.73c-3.51-3.74-5.74-8.84-8.05-13.29a89,89,0,0,1-7.74-19.37c.86-.14,1.7-.29,2.5-.38l16.52-1.88,57.9-6.58a58.13,58.13,0,0,1,3.17,15.65c.14,2.43.37,5.05-.4,7.38-1.62,4.93-7.89,6.18-10.83,1.33C389,917,388.68,912.66,387,909.17Zm125,222.94c12.29,11.26,2.59,28.42-9.8,34.37-15,7.21-33.19,4.32-49.3,4.91-15.57.57-31.68,1.82-46.77-2.92-7.5-2.36-16.64-6.37-17.42-15.3s6.56-17.51,12.61-23.37l.05-.06c8.12-.91,16.12-2.33,24.31-2.77a211.77,211.77,0,0,1,28.61.41c10.05.82,19.84,2.7,29.74,4.49,7.38,1.34,14.94,2.33,22.4,1.05a36.41,36.41,0,0,0,5.22-1.28A1.34,1.34,0,0,0,512,1132.11Zm4.49-6.12c-5.33,3.71-12.37,4.68-18.71,4.53-13.93-.33-27.69-4.71-41.59-6a211.89,211.89,0,0,0-41.91.35c-6.12.66-13.58,3.16-19.6,1.93-9.1-1.86-11.77-12.85-7.32-20,24.88-4.1,50,.1,74.7,3.38,11.83,1.57,23.82,3.19,35.77,3.22,7.57,0,16.31-.64,22.42-5.54C522.33,1114.45,523,1121.5,516.53,1126Zm139.09-21.59c4.39-1,8.65-2.43,13.1-3.22,8.72-1.57,18-1.38,25.56,3.79,17.56,12,3,32.83-9.88,41.71-13.41,9.2-29.94,12.13-45.93,11.49-18.13-.73-35-7-52.75-9.3a50.69,50.69,0,0,0-13.7,0c-5.79.81-11.14,1.71-16.58-1-8.91-4.44-12.68-13.88-12.69-23.32,6.65,3.34,14.07,4.36,21.36,5.33,8,1.06,16.4,2,24.42.85,7.79-1.12,14.76-5.52,21.62-9.1,7.6-4,15.18-8,23-11.46,3.73-1.65,8.34-2.67,11.92-4.66C648.57,1104.85,652.14,1105.16,655.62,1104.4Zm-11.84-7.3c.57,1.56,1.5,4.09.16,5.58a1.33,1.33,0,0,0-.8.46c-.86.34-2.09.58-2.65.79-5.55,2.1-11,4.54-16.31,7.15-5.51,2.68-10.93,5.54-16.36,8.38-5.86,3.07-11.86,6.84-18.43,8.11-6.32,1.22-13.18.6-19.52,0-6.52-.64-13.38-1.37-19.68-3.27-5.57-1.67-12.12-5-16.41-9-4.06-3.81-4.38-9.49-3.83-15,1.89,3.3,5.18,5.54,8.32,7.61a1.47,1.47,0,0,0,.61.24c7.78,2.82,15.9,3,24.09,2.86s16.19-1,24.09-3.74c17.13-6,33.82-12.49,51.48-16.94a1.58,1.58,0,0,0,.49-.22A19.08,19.08,0,0,1,643.78,1097.1Zm-22-119.91c1,17.36,1.61,36.55,8.84,52.65,4.1,9.13,7.73,17.56,8.56,27.65.81,9.89-.27,19.83-1.69,29.61a2.08,2.08,0,0,0,0,.35,427.9,427.9,0,0,0-47.9,15.64,71.79,71.79,0,0,1-24.72,4.84c-8.52.2-17.08.22-25.18-2.72-2.63-1.73-5.59-3.61-7.16-6.45s-1.42-6.52-1.57-9.69q-.45-8.73-.88-17.46l-1.83-36.39c-.59-11.66-1.36-23.34-1.28-35,.08-10.54,2.4-21.7-1-31.94a1.45,1.45,0,0,0-.22-.43,22.15,22.15,0,0,1,9.45-8.7c1.73-.84.21-3.43-1.52-2.59-9.62,4.67-14.14,14.66-15.47,24.83-1.7,12.87-.56,26.38-.33,39.33.49,28,1.39,56,1.57,83.93-7.27,7-19.87,6.11-29.17,5.55-12.45-.74-24.82-2.48-37.17-4.15-19.45-2.64-39.05-5.07-58.59-3.12a73.88,73.88,0,0,1-5-27.35c.13-10,2.95-18.78,5.82-28.2,4-13.15,3.36-28.12,3.5-41.77.16-15.09-.13-30.21-1.14-45.27-.77-11.47-1.77-23.15-4.45-34.37a8.63,8.63,0,0,0,5.81.09c10.88-3.71,5.75-22.22,3-30.46l3.18-.37a1.53,1.53,0,0,0,1.5-1.5V882.34a1.69,1.69,0,0,0,0-.55,48.16,48.16,0,0,0,1.79-16.48h4.06v3a1.5,1.5,0,0,0,3,0V841.05c2.41,0,4.83,0,7.26-.13v26.94a1.5,1.5,0,0,0,3,0v-3.2h41v2.14a1.5,1.5,0,0,0,3,0V832.62c1.45.44,2.91.86,4.38,1.23a1.37,1.37,0,0,0,1.07-.13c.87,0,1.74,0,2.6,0V866.8a1.5,1.5,0,0,0,3,0v-2.28l.25,0H511l.25,0v4.53a1.52,1.52,0,0,0,2.8.75h17.85v73.76a1.47,1.47,0,0,0,1.9,1.4,1.36,1.36,0,0,0,1.21-.44l10.49-11a1.36,1.36,0,0,0,.42-.94,1.76,1.76,0,0,0,.06-.41V869.8H561a1.43,1.43,0,0,0,1-.38,1.48,1.48,0,0,0,2-1.37v-2.51h26.86c-.06.83-.12,1.66-.19,2.5-.17,1.92,2.83,1.91,3,0a169.67,169.67,0,0,0-.48-35,1.52,1.52,0,0,0-.42-.91,32.62,32.62,0,0,0,8.62.41,1.3,1.3,0,0,0-.34,1,257.12,257.12,0,0,1-.11,34.78c-.14,1.93,2.86,1.92,3,0l.09-1.52c3.84.09,7.68.06,11.52-.11,11.12,14.6,8.7,33.45,7.16,50.55A404.39,404.39,0,0,0,621.8,977.19ZM451.22,835.94l.14,0h15.52v25.7h-41V840.73A108.79,108.79,0,0,0,451.22,835.94Zm12.67-5.27c1,.35,2,.68,3,1V833h-7.66c1.44-.62,2.86-1.27,4.24-2A1.46,1.46,0,0,0,463.89,830.67Zm45.88-6.9A78.2,78.2,0,0,0,520.1,830h-7.63a1.51,1.51,0,0,0-1.25,2.3v.54a1.54,1.54,0,0,0-.5-.08H484.65a111.94,111.94,0,0,0,11.49-3.55C500.78,827.62,505.31,825.78,509.77,823.77Zm45,17.88v19.14h-34v-6a7.06,7.06,0,0,0,1.45.22,1.27,1.27,0,0,0,1.41.33c3-1,5.85-3.67,5-7.18s-4.76-4.11-7.88-3.45v-6.2H525a1.77,1.77,0,0,0,.41,0h29.34v2.83A2,2,0,0,0,554.77,841.65ZM524,851.88a1.34,1.34,0,0,0-.44,0,4.11,4.11,0,0,1-4-1.08,3,3,0,0,1-.89-1.47c0-1.07,1.51-1.43,2.3-1.65,1.24-.34,3.71-.76,4.54.63S525.24,851.1,524,851.88Zm.88-16.42a1.68,1.68,0,0,0-.4,0H519a1.51,1.51,0,0,0-1.25,2.3v7.46a1.43,1.43,0,0,0,.12.6c-1.92,1.26-2.89,3.32-1.39,5.83a6.71,6.71,0,0,0,1.52,1.74,1.4,1.4,0,0,0-.25.84V862a2,2,0,0,0,.06.44,1.4,1.4,0,0,0,1.44,1.31H556a1.46,1.46,0,0,0,1.42-1.81,1.39,1.39,0,0,0,.33-.94V840.26a1.34,1.34,0,0,0,0-.35v-2.26a1.49,1.49,0,0,0-1.29-2.19h-7.37a23.67,23.67,0,0,0,3.25-2.22,1.37,1.37,0,0,0,1.23.68H561V866.8H514.22V833h9.26a1.36,1.36,0,0,0,1.27-.75c2.35,1.08,4.69,2.09,7,3l.44.17Zm38.19-9c9.8-1,18.45,3.14,27.85,5.28a1.15,1.15,0,0,0-.68,1.29l0,.27H564V833a2.71,2.71,0,0,0-1.81-2.09h-7.09C557.58,828.87,560.07,827,563.05,826.42Zm1,9.84h26.53a168.35,168.35,0,0,1,.53,26.28H564ZM543,931.82q-4.05,4.23-8.08,8.47V869.8H543Zm-62-96.06h29.79a1.54,1.54,0,0,0,.5-.09v25.9a1,1,0,0,0-.25,0H481.18a1,1,0,0,0-.25,0Zm133.89,27.92q-5.3.21-10.57.09a259.5,259.5,0,0,0,0-27.47l10.58-.31Zm95.27-73.5c-2.67-.8-5.15-1.36-7.84-.42-3.66,1.26-6.39,4.1-10.17,5.19-7.89,2.28-17.14-1-24.65-3.39-15.51-5-31.54-12.14-47.93-6.78a1.48,1.48,0,0,0-.66.42c-3.43-7.49-6.19-14.86-7.46-22.48a67.34,67.34,0,0,1,30.79-13.93c1.9-.33,1.1-3.22-.79-2.89a69.87,69.87,0,0,0-30.46,13.4,50.57,50.57,0,0,1,.84-16c2.88-13.38,9.57-25.58,16.18-37.43.94-1.69-1.65-3.21-2.6-1.52-9.88,17.74-19.65,37-17.34,57.28a1.31,1.31,0,0,0,.26,2,53.32,53.32,0,0,0,1.75,7.65c3.68,11.9,10.48,22.55,14,34.48,3.46,11.54,3.3,25.65-6.24,34.1v-5a1.4,1.4,0,0,0-1.35-1.43,1.34,1.34,0,0,0-1.13-.5l-11.29.34a1.44,1.44,0,0,0-.74-1,29.15,29.15,0,0,0,11.9-4.64c1.61-1.06.11-3.66-1.51-2.59-9.18,6.1-18.39,5-28.44,2-7-2.09-13.74-4.21-21-3.71a1.52,1.52,0,0,0-.43,0,9.43,9.43,0,0,0-.95.14l-.3,0a1.42,1.42,0,0,0-.48.14c-3.86,1-6.78,3.71-10,6.21-6.36,5-12.89,5.45-20.26,2.26-6.33-2.74-13.07-5.83-18.91-9.75,1.54-.72,3.07-1.46,4.59-2.24,1.72-.87.2-3.46-1.52-2.59-1.94,1-3.9,1.93-5.87,2.84l0,0c-1-.74-1.91,0-2.1,1-4.14,1.84-8.35,3.54-12.64,5-6.55,2.26-13.65,4.89-20.66,4.37a1.83,1.83,0,0,0-.48,0c-14.61-3.84-28.3-11.24-43.68-11.56-1.93,0-1.93,3,0,3,10.31.21,19.88,3.73,29.48,7.15-10.6,4.95-22.9,7.72-35.18,8.53a1.65,1.65,0,0,0-1.18.08,112.74,112.74,0,0,1-22.79-1c-.88-3-1.57-6-2.58-9-1.24-3.65-3.17-7-4.61-10.54a59.71,59.71,0,0,1-3.36-11.87,1.43,1.43,0,0,0,.45-.79c6.46-29.6,12.91-63.71-6.84-89.91-1.15-1.52-3.75,0-2.59,1.52,17.86,23.69,13.65,53.9,7.91,81.18-.07-.87-.14-1.75-.2-2.64-.13-1.91-3.13-1.93-3,0a76.85,76.85,0,0,0,3.64,20.4c2.34,6.75,5.63,12.92,7.56,19.85.29,1.07.63,2.13,1,3.18a1.22,1.22,0,0,0,.36,1.06c1.86,5.41,4.17,10.65,5.5,16.24a49.68,49.68,0,0,1,0,24.44c-14.75-5-30.34-5.62-45.81-5.66-15.93,0-32.2-.27-47.33,5.42l-.16.08a1,1,0,0,0-.08-.11c-11.13-12.74.55-33.35,4-46.88,3.95-15.52,4.83-31.64,5.4-47.58,1.05-29.37.74-62.21,18-87.45a1.45,1.45,0,0,0,.86-.61c6.61-9.71,16.85-15.58,27.51-19.94,11.13-4.56,22.69-8.14,34.06-12,13.18,14.42,31.81,15.48,50.66,14.38a2.26,2.26,0,0,0,.39-.07l.17.1c2.63,1.26,6,2.75,9.81,4.34a1.39,1.39,0,0,0-.3,1.35c4.07,14.75,16.87,24.19,28.42,33.11q10.49,8.12,21.34,15.76,5.35,3.76,10.78,7.41c3.14,2.12,6.36,4.81,9.94,6.15,5.89,2.2,10.54-1.86,14-6.21a116.91,116.91,0,0,0,11.3-17.39c6.66-12.28,12.14-25.94,13-40,15.17,1.24,31.12-4.52,41.67-15.53,9.49,2,17.3,9.22,21.58,17.72,1.65,3.27,2.44,4.24,6.1,4.53a31.24,31.24,0,0,1,16.82,6c3.4,2.44,6.43,5.35,9.81,7.83,2.31,1.69,5.4,5.4,8.37,5.76a4.11,4.11,0,0,0,2.7-.83c2.37-1.3,3-1.76,6-1.3a29.8,29.8,0,0,1,14,6.07c.11.08.22.14.32.2a1.33,1.33,0,0,0,1.81-.2,25.63,25.63,0,0,1,18.57-8.74,27.23,27.23,0,0,1,10.31,2,156.89,156.89,0,0,0,3.68,84.79C724.39,793.62,717.41,792.37,710.09,790.18Zm31.87-.54c-1,1.21-4.93,1.81-6.46,2.19l-.75.17a.2.2,0,0,1,0-.07,154,154,0,0,1-3.87-82.8c2.79,1.64,5,3.89,5.79,6.82,1.11,4.19.35,9.31.47,13.63q.2,6.87.64,13.74.81,12.42,2.49,24.78.86,6.28,1.93,12.56C742.64,783.31,743.89,787.31,742,789.64Zm3.85-6c-.15-.65-.29-1.29-.39-1.88q-1.59-8.94-2.71-18-1.94-15.57-2.49-31.28c-.26-7.42,1.82-17.49-4.27-23l-.24-.22c7.92-9,3-22.39,4-33.18.51-5.41,4.42-9.22,10.07-7.79,4.29,1.09,7.19,4.89,9.18,8.58a42.45,42.45,0,0,1,4.22,26,1.5,1.5,0,0,0,0,.52,1.4,1.4,0,0,0,1.32,2.05c10-.59,21.34-1.11,30.18,4.54,4.45,2.85,8.26,7.66,8.66,13.07.45,5.88-3.33,10.35-8.08,13.28-7.93,4.89-23.47,10.08-29.88.45-4.2-6.3.93-12.63,7.18-14.62,5.13-1.64,10.9-1.41,16.22-1.13,1.93.1,1.92-2.9,0-3-9.78-.51-29.66.52-28,15.2.68,5.93,4.1,9.1,8.58,10.52-5.07,2.62-4.73,10.05-3.59,15.22a14.2,14.2,0,0,0,4.21,7.74c-5.28,3.17-6.13,9.61-4.34,15.17A23.72,23.72,0,0,1,745.81,783.66Zm49-17.38c4.74,2.67,7.08,8.44,4.54,13.5-2.11,4.22-6.84,7.18-11.09,8.85-5.29,2.08-11.71,2.16-16.19-1.86-4.88-4.37-6.64-14.38.09-17.84a1.51,1.51,0,0,0,.51-.4,16.69,16.69,0,0,0,9,1.34,36.61,36.61,0,0,0,13-3.7A.83.83,0,0,0,794.83,766.28Zm2.59-27.64c4.62,5,7.85,11,4,17.64-3,5.24-9.17,8.22-14.85,9.69-5.34,1.37-12.73,2.33-16.21-3.1-2.76-4.29-4.53-15.91,2.39-17a1.2,1.2,0,0,0,1.08-1.23,40.6,40.6,0,0,0,18-3.17,31,31,0,0,0,5.43-3Z" transform="translate(-135.76 -329.53)"/><path d="M760.45,748.42a21,21,0,0,1-13.26,8.73c-1.88.4-1.09,3.29.8,2.9a24.07,24.07,0,0,0,15-10.12C764.14,748.33,761.54,746.83,760.45,748.42Z" transform="translate(-135.76 -329.53)"/></g><g id="Camada_3" data-name="Camada 3"><path class="cls-11" d="M255.76,1269.3a2.5,2.5,0,0,1,0-1.09V1014.86a2.64,2.64,0,0,1,0-1V966.25h-114v384h114Z" transform="translate(-135.76 -329.53)"/><path class="cls-5" d="M845.83,1073.62c-18.71-5.84-38.94.28-56.26,7.75-32.61,14.06-63,32.69-94.19,49.45-23.48,12.61-47.78,24.11-73.2,32.12a2.6,2.6,0,0,1-1.44.46,257,257,0,0,1-26.47,6.72c-37.72,7.4-76.35,7.28-114.63,7.08-3.86,0-3.86-6,0-6,10,0,20,.1,30,0,37-.34,73.92-2.87,109.34-13.55,11.56-12.52,7.74-29.72-.23-43.27-8.27-14.06-21.11-23.74-36.4-29.16-30.91-11-64.41-4.26-96.25-2.77a458,458,0,0,1-82.61-3.33c-51.16-6.91-102.3-24.08-141.75-58.2v246.35a170.83,170.83,0,0,0,19.38,15.15A194.81,194.81,0,0,0,324,1303.52c16.79,6,34.34,11.3,52.13,13,19.56,1.88,39.34.73,58.94.23l61.63-1.6c40.14-1,80.22-1.56,118.94-13.48,36-11.08,69.54-29.18,101.52-48.87a780.24,780.24,0,0,0,90.74-65.28c14.26-11.91,28.15-24.3,41.5-37.23,11.67-11.32,25.11-25.66,25-43C874.32,1090.83,860.68,1078.26,845.83,1073.62Z" transform="translate(-135.76 -329.53)"/><path d="M836.24,1065.66c-19.4-1.89-38.25,5.25-55.58,13.15s-34.07,16.82-50.69,26c-32.46,18-64.65,36.67-99.75,49.14l-1.75.61c10.58-20.11-2.46-46.73-18.92-60.75-24.22-20.63-57.36-21.94-87.57-19.9-30.46,2.06-60.53,4.1-91.07,2-29.21-2-58.35-7-86.22-16.09-30.45-10-59.22-25.21-82.93-46.92V963.25a2.78,2.78,0,0,0-.8-2l-.1-.1-.05,0a2.78,2.78,0,0,0-2.05-.82h-120a2.74,2.74,0,0,0-2,.81l-.1.09,0,.06a2.76,2.76,0,0,0-.82,2v390a2.78,2.78,0,0,0,.8,2l.1.1.06.06a2.75,2.75,0,0,0,2,.81h120a2.78,2.78,0,0,0,2-.8.47.47,0,0,0,.1-.1l.06,0a2.77,2.77,0,0,0,.81-2v-78c24.29,20.36,53,32.78,83.54,41.28,39.43,11,81.14,6.49,121.57,5.44,41.52-1.07,84.18.27,125.07-8,37.78-7.63,73.21-24,106.52-43A780.87,780.87,0,0,0,794.63,1206q23-18.12,44.63-37.92c12.88-11.8,27.13-23.91,35.44-39.56,7.09-13.35,8-29.2-.93-42C865.19,1074.28,850.93,1067.09,836.24,1065.66Zm-694.48-15.93V966.25h114v47.64a2.64,2.64,0,0,0,0,1v253.35a2.5,2.5,0,0,0,0,1.09v81h-114ZM849.39,1150.3c-13.35,12.93-27.24,25.32-41.5,37.23a780.24,780.24,0,0,1-90.74,65.28c-32,19.69-65.49,37.79-101.52,48.87-38.72,11.92-78.8,12.45-118.94,13.48l-61.63,1.6c-19.6.5-39.38,1.65-58.94-.23-17.79-1.71-35.34-7-52.13-13a194.81,194.81,0,0,1-42.85-21.09,170.83,170.83,0,0,1-19.38-15.15V1020.93c39.45,34.12,90.59,51.29,141.75,58.2a458,458,0,0,0,82.61,3.33c31.84-1.49,65.34-8.19,96.25,2.77,15.29,5.42,28.13,15.1,36.4,29.16,8,13.55,11.79,30.75.23,43.27-35.42,10.68-72.37,13.21-109.34,13.55-10,.09-20,0-30,0-3.86,0-3.86,6,0,6,38.28.2,76.91.32,114.63-7.08a257,257,0,0,0,26.47-6.72,2.6,2.6,0,0,0,1.44-.46c25.42-8,49.72-19.51,73.2-32.12,31.24-16.76,61.58-35.39,94.19-49.45,17.32-7.47,37.55-13.59,56.26-7.75,14.85,4.64,28.49,17.21,28.58,33.65C874.5,1124.64,861.06,1139,849.39,1150.3Z" transform="translate(-135.76 -329.53)"/></g></svg>