<svg id="Camada_2" data-name="Camada 2" xmlns="http://www.w3.org/2000/svg" viewBox="0 0 610.8 610.8"><defs><style>.cls-1{fill:#c7c0cc;}.cls-2{fill:#3f3822;}.cls-3{fill:#f9d1b6;}.cls-4{fill:#f5f4ff;}.cls-5{fill:#b2a874;}.cls-6{fill:#f9bbb6;}.cls-7{fill:#964b00;}.cls-8{fill:#fff;}.cls-9{fill:#8db7ef;}.cls-10{fill:#110603;}</style></defs><title>Idoso Circulo</title><path class="cls-1" d="M716.83,584.56a140.69,140.69,0,0,0-69.78-31.21c2.07,4,4.11,8,6,12.1,6.94-1.25,13.15,1.44,19.12,5,7.69,4.54,15.21,9.42,22.8,14.13,1.64,1,.13,3.61-1.51,2.59q-9.09-5.64-18.17-11.29c-6.34-3.93-13.22-8.64-20.94-7.57a132.59,132.59,0,0,1,6.51,17.37l.3,0a48.57,48.57,0,0,1,28.2,15.93c1.27,1.45-.84,3.58-2.12,2.12a46,46,0,0,0-25.51-14.88q.32,1.26.6,2.52a1.48,1.48,0,0,1-.26,1.24c4.89,2.7,8.47,7.74,11.46,12.3a13.64,13.64,0,0,1,6.3,8.72c2,8.45-4.25,13.66-11.64,14.71,3.74,5,4.44,11.47,5.39,17.57,1,6.46,1.75,13,2.44,19.45a49.78,49.78,0,0,0,4.1-9.07c1.08-3.67,0-7.35,1.34-11a1.58,1.58,0,0,1,.42-.6c2-3.75,6-6.14,10.28-7a1.9,1.9,0,0,1,.05-.4c5-18.93,16.11-35.25,25-52.49A1.3,1.3,0,0,1,716.83,584.56Z" transform="translate(-229.3 -297.92)"/><path class="cls-2" d="M325.15,509.62c-4.49,6.92-5.58,14.6-5.71,22.71-.12,7.54-.23,15.26,1,22.71,2.32,13.77,11.59,22.93,20.74,32.21A204.55,204.55,0,0,1,422,545.92a56.75,56.75,0,0,1-25.07-30.59A48,48,0,0,1,394.15,496c.62-7,5.59-11.13,10.71-15.3a131.59,131.59,0,0,1,35.94-20.58,145,145,0,0,1,43.35-9.39,36.52,36.52,0,0,1-12.25-51c1-1.63,3.61-.13,2.59,1.51a33.55,33.55,0,0,0,15.14,48.91,1.41,1.41,0,0,1,.47.33A135.32,135.32,0,0,1,522,453.73a45.07,45.07,0,0,1-.43-23c.45-1.88,3.34-1.08,2.9.8a41.53,41.53,0,0,0,.19,20.57c.23.85.52,1.81.86,2.83a1.44,1.44,0,0,1,.13.4c1.87,5.44,5.32,12.38,10.66,13.57a1.55,1.55,0,0,1,1.25,0c15.44,6.64,34,9.27,49.94,2.78a43.78,43.78,0,0,0,19.08-14.61c5.4-7.5,7.38-16.63,9.27-25.51.41-1.89,3.3-1.08,2.9.8-2.08,9.72-4.38,19.55-10.58,27.56l-.08.1c25.45-3.25,50.63,9.11,62.7,32,2.71,5.15,5.38,11.23,5.57,17.13.19,5.67-2.66,11.29-5.24,16.18a78.65,78.65,0,0,1-21.41,25.33,144.37,144.37,0,0,1,68.88,31.41,114.25,114.25,0,0,0,9.67-25.79c3.36-14.94,1.65-30.64-7.89-43a48.09,48.09,0,0,0-34.26-18.67c-1.91-.14-1.92-3.14,0-3a50.29,50.29,0,0,1,10.51,1.92c7.23-10.29,8.11-23.42,3.91-35.18a58.27,58.27,0,0,0-10.62-17.87c-4.09-4.81-9.88-11.13-16.84-10.33C669,444,661.75,457,652.93,468.32c-1.18,1.52-3.29-.62-2.12-2.12,8.77-11.24,16-23.94,19.89-37.67a1.28,1.28,0,0,1,.13-.51,79.81,79.81,0,0,0,2.49-13.09c1.52-14.79-1.66-30.32-9.94-42.78-9-13.53-24-21.41-39.26-25.76a108.39,108.39,0,0,0-88.66,14c-1.62,1.07-3.12-1.53-1.51-2.59q3.84-2.53,7.87-4.74c-19.92-6.4-41.83-3-60.45,6.12-9.57,4.71-19.17,11-26.05,19.26-9.26,11.11-7.73,24.16-5,37.4.39,1.88-2.5,2.68-2.89.79-1.58-7.62-2.93-15.47-2-23a119.46,119.46,0,0,0-81.25,23c-11.6,8.66-24.07,20.73-24.16,36.25a33.31,33.31,0,0,0,19.09,30.05l3.44-1.37c1.79-.72,2.57,2.18.79,2.89C349.2,490.07,333.77,496.29,325.15,509.62Z" transform="translate(-229.3 -297.92)"/><path class="cls-1" d="M371.15,603.52c12.2-2.29,21.74,10.88,19.78,22-1,7.31-2.09,14.77-1.34,22.16.3,3,1,11.18,5.3,10.17,2.72-.65,6.22-4.09,8.41-5.71.69-.51,4.25-2.53,4.31-4,0-.54-1.29-2.44-1.58-3.11a25.78,25.78,0,0,1-1.89-7.11,26.88,26.88,0,0,1,2.31-14.32c-7-1.78-12.26-8.9-12-16.75.15-5.2,2.39-11.45,6.72-14.64,2.4-1.77,5.59-2.27,8.95-2.24q0-3.29.36-6.53L392.78,591c-1.76.75-3.28-1.84-1.51-2.59L410.84,580h0a74.68,74.68,0,0,1,2.2-10.18,65.06,65.06,0,0,0-16.59,5.6c-4.12,2.08-8,4.51-12.46,5.71a1.5,1.5,0,0,1-.8-2.89,42.3,42.3,0,0,0,15.05-7c2-1.51,7.39-3.07,15.19-4.58a1.51,1.51,0,0,1,.6,0,74.64,74.64,0,0,1,9-18,201.33,201.33,0,0,0-79.74,40.64c6.27,6.43,12.22,13.1,15.54,21.56C362.3,607.44,366.27,604.44,371.15,603.52Z" transform="translate(-229.3 -297.92)"/><path class="cls-1" d="M416.28,590.45c2.29.28,4.47.6,6.35.72s1.93,3.13,0,3c-4.84-.31-10-1.22-14.88-.93-6,.36-9.07,5.59-10.06,11-1.7,9.39,5.75,19.16,15.62,16.19a1.57,1.57,0,0,1,.82-.78A92.36,92.36,0,0,1,452,612.62c13,.38,25.26,4.1,37.54,8.12a185.67,185.67,0,0,0,19.77,5.65c7.32,1.52,16.84,3.36,21.8-3.84,4.21-6.09,5.41-15,2.43-21.77-2.8-6.41-9.53-10.51-16.48-9.13a12.84,12.84,0,0,1,1.35,4.88c.14,1.93-2.86,1.92-3,0-.41-5.71-5.76-9.32-11.18-8.92-3.11.23-6.12,1.37-9.1,2.36a24.46,24.46,0,0,1,2.09,3.17c.94,1.7-1.65,3.21-2.59,1.52a22.73,22.73,0,0,0-27.83-10.13,14.11,14.11,0,0,0,4.58,2.55,1.5,1.5,0,0,1-.8,2.89c-5.41-1.55-8.38-6.58-14.44-6.79-5.18-.18-10.26,2-14.93,4.28a20.29,20.29,0,0,0,2.63.2,1.5,1.5,0,0,1,0,3C435.83,590.64,422.38,582.45,416.28,590.45Z" transform="translate(-229.3 -297.92)"/><path class="cls-1" d="M641.77,618.53c8.71,3.56,20.11,9.7,29.66,6,7.23-2.79,7.23-11.48,1.86-16.16-4.13-3.6-10-4-15.16-3.19-1.89.29-2.7-2.6-.8-2.89a28.22,28.22,0,0,1,11.13.46c-2.18-3-4.71-5.84-7.86-7.56s-7.28-2.2-11.22-1.94a1.29,1.29,0,0,1-.39,0,52.37,52.37,0,0,0-7.32,1.15c-1.89.42-2.68-2.47-.8-2.89,1.4-.31,2.86-.6,4.36-.83-6.13-3.58-12.89-1.65-19.7-.1a1.39,1.39,0,0,1-.68.15,34.49,34.49,0,0,1-10.23,1.1c-1.91-.16-1.92-3.16,0-3a22.27,22.27,0,0,0,5.49-.28,31.46,31.46,0,0,0-13.64-2.07c-6.1.41-16.69,3.3-17.52,10.65-.22,1.9-3.22,1.91-3,0a11.08,11.08,0,0,1,1.6-4.59c-7.4-1.51-14.83,3-15.5,11-.64,7.67,5.46,13.76,12.24,16.16,9.91-2.18,19.89-4.84,30-5.89C624.07,612.84,632.74,614.83,641.77,618.53Z" transform="translate(-229.3 -297.92)"/><path class="cls-3" d="M340.14,672c.73,7.7,5.78,14.11,8.95,21s3.29,13.16,3.7,20.42c.49,8.69,3,14.62,12,16,5.87.91,12.84.19,17.65-3.52a1.18,1.18,0,0,1,1.14-.24,85,85,0,0,1,5.74-33.71c.69-1.78,3.59-1,2.9.8-8.66,22.54-8.31,48.9,6.95,68.58a52.7,52.7,0,0,0,27.38,18.73c12.21,3.41,25.1,2.63,37.6,1.9a1.27,1.27,0,0,1,1.31.77A297.45,297.45,0,0,0,546.86,808c11.66,1.84,24.4,3.56,36,.42a1.14,1.14,0,0,1,1.22-.38,39.13,39.13,0,0,0,6.66-2.68c13.56-7.06,17.07-20.23,15.54-34.56-.2-1.93,2.8-1.9,3,0a51.87,51.87,0,0,1-.55,16.25c19.77,3.76,41.73-3.44,55.78-17.8,14.63-15,18.53-38.51,10.19-57.58-.76-1.75,1.82-3.28,2.59-1.51A56.39,56.39,0,0,1,682,731.85h.13c7.15,1.45,11.66-10.52,13-15.69,1.87-7.24-.07-14.86,1-22.24a32.49,32.49,0,0,1,4.17-11.56c2.91-5.32,1.37-9.63,1.31-15.28-.06-5,1.75-9.63,2.21-14.52s-1.22-11.68-7-12.24c-4.77-.37-10.26,1.95-12.41,6.27l-.15.22c-1.19,3.88-.14,8-1.76,11.91-1.74,4.25-4,8.34-6,12.48-.71,1.48-2.65.56-2.79-.76-.76-7.29-1.52-14.59-2.58-21.84-.93-6.36-1.38-14.27-5.82-19.31a1.45,1.45,0,0,1-.38-.79h0c-12.67-.4-23.4-8.31-35.5-11-14.19-3.2-29.63,1.85-43.6,5a1.29,1.29,0,0,1-1.45.39l-.12,0-.25.06a1.49,1.49,0,0,1-1.66-.77c-7.87-3.27-14.43-10.86-13-19.87,1.51-9.69,11.1-14.92,20.23-12.35l.22.09c3.17-3.09,7.85-5,12-5.84a34.24,34.24,0,0,1,23.25,3.36c3.68-1,7.32-2,11.2-2a21.17,21.17,0,0,1,13.54,4.73,25.94,25.94,0,0,1,9.65,1.1c-3.13-13.43-9.31-26-15.68-38.16a1.44,1.44,0,0,1-.05-1.29,1.5,1.5,0,0,1,.41-.61,1.19,1.19,0,0,1,1.41-1.2l.18,0a75.84,75.84,0,0,0,22.23-24.8c2.66-4.8,5.74-10.45,5.6-16.08s-3.13-12-5.88-16.95a58.65,58.65,0,0,0-59.64-29.19,1.6,1.6,0,0,1-1.62-.79,48.11,48.11,0,0,1-17.55,12.18c-16.39,6.72-35.29,4.2-51.33-2.4-7.31-.48-11.67-8.54-14.06-14.59-.06-.15-.11-.31-.17-.46-31.92-7.64-66.74-2.78-95.74,12.45a122,122,0,0,0-21,13.84c-3.28,2.71-7.32,5.68-8.7,9.89s-.61,9.95.24,14.34a53.6,53.6,0,0,0,29.24,37.73,1.51,1.51,0,0,1,.53,2.06,71.88,71.88,0,0,0-14.63,42.51l.07-.14c5.38-8.62,14.88-5.23,23.39-3.18l.23-.15c5.56-2.9,11.53-5.82,17.9-6.18a16.4,16.4,0,0,1,7.24,1.11,13.65,13.65,0,0,1,2.28,1.26,1.32,1.32,0,0,1,.57-.44A25.92,25.92,0,0,1,493,587.52c5.48-1.68,11.34-4.35,17-2.14a13.58,13.58,0,0,1,5.33,3.67,1.61,1.61,0,0,1,.48-.2c12.22-2.88,22.08,7.58,22.39,19.32.16,6-1.68,12.72-5.54,17.35-4.47,5.35-11.08,5.68-17.57,4.86-16.5-2.09-31.62-9.6-47.83-13a89.24,89.24,0,0,0-51.48,4.85,1.5,1.5,0,0,1-.91.86,14.37,14.37,0,0,1-5.38.89,1.27,1.27,0,0,1-.12.36,23.82,23.82,0,0,0-1.88,15.45c.55,2.47,1.85,4.49,2.72,6.8a4.9,4.9,0,0,1,.69,2.17c-.16,2.24-3.08,3.71-4.59,4.86-3.36,2.55-7.54,6.42-11.57,7.79-12,4.08-7.41-31.66-6.69-36.69,1.49-8.48-5.32-18.73-14.53-18.5-5.1.13-9.78,3.55-13.74,7.69a1.39,1.39,0,0,1-1.1,1.2c-.87,1-1.7,2-2.48,3a1.76,1.76,0,0,1,.41,0c13.1,1,20.38,13.62,20.35,25.76,0,8-2.59,15.53-5,23-1.54,4.75-2.87,9.54-2.13,14.56s3.26,9.6,5.71,14c.94,1.7-1.65,3.21-2.59,1.52-3.22-5.83-6.46-12-6.39-18.79.07-6.55,2.85-12.68,4.7-18.85,2.32-7.73,4-16.32,1.49-24.23-2.32-7.26-8.26-13.45-16.12-14a1.54,1.54,0,0,1-1.44-1.65c-1.06,1.39-2,2.75-2.89,4a22,22,0,0,0-4.46,13.38c0,4.28.49,8.19-.69,12.37C344.92,656.85,339.34,663.63,340.14,672Zm341.39,32.08a49,49,0,0,0,4-18c.1-5.36-1.44-10.56-1.37-15.89.12-9,6.85-15.59,13.26-21.09,1.46-1.25,3.59.87,2.12,2.12a66.63,66.63,0,0,0-7,6.71,1.52,1.52,0,0,1,.46.48,29,29,0,0,1,3.8,21.58c-.39,1.89-3.28,1.09-2.89-.8a25.83,25.83,0,0,0-3.26-18.85,21.44,21.44,0,0,0-1.15,1.82c-3.07,5.44-2.08,10.76-1.33,16.66a50.9,50.9,0,0,1-3.66,26C683.69,706.64,680.79,705.86,681.53,704.08ZM418.05,516.28a1.54,1.54,0,0,1-.62-1.32,1.27,1.27,0,0,1-.21-.29,6.45,6.45,0,0,1,1.72-8.37c2.2-1.58,5.51-1.74,7.49.31C430.7,511,423.25,520.27,418.05,516.28Zm18.14-23.14c-4.47,5-11.61,8.26-18.24,6.7a2,2,0,0,1-.34-.12,1.34,1.34,0,0,1-1.41-.38c-4.19-4.16-3.57-9.87.49-13.85,3.46-3.39,10.56-9.05,15.58-6.28C437,481.8,440.13,488.75,436.19,493.14ZM580.27,760.26c-8.73-5.48-18.48-3-27.08,1.33-1.72.87-3.24-1.72-1.51-2.59,9.55-4.8,20.47-7.38,30.1-1.33C583.41,758.69,581.91,761.29,580.27,760.26Zm34-35.74a19.75,19.75,0,0,0-2.5-4.07,1.4,1.4,0,0,1-.67.81c-19.26,11.16-40.92,21-63.73,18a309.13,309.13,0,0,1-35-6.58c-9.86-2.53-19.81-5.9-27.57-12.67a31.78,31.78,0,0,0-4.27,5.46c-1,1.64-3.61.13-2.59-1.52a34.91,34.91,0,0,1,13.8-12.77c1.72-.88,3.23,1.71,1.51,2.59a32.74,32.74,0,0,0-6.24,4.19c7.95,6.89,18.79,10.22,28.92,12.47,10.45,2.33,21.18,4.45,31.79,5.87,22.15,3,43.13-6.75,61.82-17.58a2.3,2.3,0,0,1,.37-.16,19.5,19.5,0,0,0-4.14-3c-1.71-.91-.19-3.5,1.51-2.59A21.71,21.71,0,0,1,616.85,723C617.66,724.75,615.07,726.27,614.26,724.52Zm-91.81-25.66c3.14.85,6.82.37,10,0A31.07,31.07,0,0,1,530.6,693c-.41-1.89,2.49-2.69,2.89-.8,2.07,9.56,8.32,16.81,17.91,19.25,4.68,1.19,11.19,2.31,15.48-.53,3.15-2.09,5-5.83,6.07-9.32,2.63-8.43.77-16.25-2.44-24.18A74.26,74.26,0,0,0,565.25,667c-1.66-2.81-2.88-5.44-2.73-8.75.09-1.92,3.09-1.93,3,0-.25,5.39,4.41,9.89,6.37,14.67,2.11,5.14,4.45,10.31,5.13,15.88a34.39,34.39,0,0,1-.34,10.54c2.45.28,5,1.59,6.74-1.32,1.37-2.34.7-6,.38-8.65-.42-3.51-.51-8.59-5.41-7.18a1.5,1.5,0,0,1-.8-2.89c7.13-2,8.46,4,9.19,9.67.45,3.46,1.31,8.67-1.16,11.61a8.45,8.45,0,0,1-4.22,2.65c-2.06.44-3.46-.9-5.44-.93a22.9,22.9,0,0,1-4.71,8.76c-6,6.7-17,5.1-24.47,2.09a25.74,25.74,0,0,1-13.1-11.75,1.53,1.53,0,0,1-1,.48c-5,.55-11.06,1.28-15.21-2.15-3-2.52-3.67-6.31-3-10,1.46-7.71,7.62-13.85,15.72-10.93,1.8.65,1,3.55-.8,2.9-6.26-2.27-10.57,2.25-11.88,8.12C516.67,693.81,518,697.65,522.45,698.86Zm38.66,26.32c1.89-.37,2.69,2.53.8,2.9a7.78,7.78,0,0,1-8.7-10.91c.77-1.77,3.35-.24,2.59,1.51A4.74,4.74,0,0,0,561.11,725.18Zm58.41-198c1.91.19,1.93,3.19,0,3-12.66-1.23-24.38,1.45-35.71,7.07-8.87,4.4-17.49,9.27-27.61,9.68-1.94.08-1.93-2.92,0-3,11.77-.48,21.44-7.52,31.95-12A63.83,63.83,0,0,1,619.52,527.17ZM471.19,517.9c16.13-2.11,32.5-4.21,48.75-2.17,15.69,2,31.27,11,47.29,7.71,1.89-.38,2.69,2.51.8,2.89-15.49,3.16-29.75-4.55-44.72-7.09-17.27-2.93-34.92-.59-52.12,1.66C469.28,521.15,469.3,518.14,471.19,517.9Zm51.45,36.65A114.18,114.18,0,0,0,459,551.39c-1.88.45-2.68-2.44-.8-2.89a116,116,0,0,1,58.26,1c20,5.63,40.18,18.17,61.48,11.08,1.84-.62,2.62,2.28.8,2.89C559.39,569.86,540.7,560.73,522.64,554.55Zm-97.39,79.38a1.51,1.51,0,0,1,2.44-1.15h87.6a1.39,1.39,0,0,1,1,.41l0,0,0,0a1.38,1.38,0,0,1,.4,1v12.61c9-8.34,22-8.41,33.68-8.6,11.44-.18,21.41,3.23,30,10.52-.12-4.84-.22-9.68-.24-14.53a1.46,1.46,0,0,1,1.94-1.38,1.55,1.55,0,0,1,.59-.12h83.1a1.37,1.37,0,0,1,1,.42h0l.07.07a1.37,1.37,0,0,1,.4,1c0,10.66.24,21.31.25,32a1.7,1.7,0,0,1-.05.41c-.79,4.92-5.62,9.93-10.83,9.46-24.74,0-49.48-.45-74.23-.46a1.34,1.34,0,0,1-1.1-.5,1.37,1.37,0,0,1-.4-1c0-4.7-.11-9.39-.23-14.09a1.74,1.74,0,0,1-.22-.18c-8.49-8.2-18.45-11.92-30.17-11.73s-24.7,0-33.08,9.27a1.47,1.47,0,0,1-.47.35v17.06a1.35,1.35,0,0,1-.41,1l0,0-.05,0a1.4,1.4,0,0,1-1,.4H443.7c-7.07.81-16.05-1.71-18.31-9.22a1.48,1.48,0,0,1-.12-.45,1.94,1.94,0,0,1,0-.24Zm-73,23.16a30.24,30.24,0,0,1,15.41-16.41c1.74-.82,3.26,1.77,1.51,2.59a27.48,27.48,0,0,0-14.54,16c-2.79,8.18-.54,16.12,2.2,24,.64,1.83-2.26,2.61-2.89.8C350.8,675.09,348.65,666.23,352.23,657.09Z" transform="translate(-229.3 -297.92)"/><path class="cls-4" d="M664.32,635.78H583.2c.09,12.3.67,24.58.75,36.87,24.25,0,48.49.45,72.74.46,3.89.35,7.18-3.38,7.88-7C664.56,656,664.36,645.89,664.32,635.78Zm-28.56,23.44h0l-1,.11s0-.06,0-.09l-40.08.55c-.1.18-.21.34-.31.52l-.87-.5h0l-.86-.5C598,650,606.49,644,615.36,643.19c10.43-.92,20.4,6.52,21.39,15.93l-1,.1Z" transform="translate(-229.3 -297.92)"/><path class="cls-5" d="M550.34,645.15c11.58-.19,21.67,3.31,30.28,10.78,0-1,0-2-.08-3-8.46-8.14-18.4-11.84-30.07-11.65s-24.71,0-33.09,9.27a1.38,1.38,0,0,1-.59.4v2.68C525.74,645.41,538.67,645.34,550.34,645.15Z" transform="translate(-229.3 -297.92)"/><path class="cls-6" d="M429.44,482.43c-2.79-.32-3.64.21-5.91,1.64a32.56,32.56,0,0,0-3.83,2.75c-3.19,2.73-4.77,6.7-1.64,10.12a1.46,1.46,0,0,1,.69,0c4.42,1,8.39-.58,11.95-3.1,2.08-1.48,4.42-3.58,4.25-6.49C434.76,484.22,432,482.71,429.44,482.43Z" transform="translate(-229.3 -297.92)"/><path class="cls-7" d="M319,759.1c-1.44-1.29.69-3.4,2.12-2.12,26.67,23.86,38.92,58.6,41.17,93.62a300.52,300.52,0,0,0,32.44,19.78c1.05-9.07,7.42-17.22,13.52-23.58a145.74,145.74,0,0,1,21.05-17.59c-6.25-9.41-13.82-18.46-18.37-28.81-3.26-7.42-5.1-17.25.29-24a58.53,58.53,0,0,1-14.34-13.22,64.13,64.13,0,0,1-13-34.53c-7.75,5.77-24.65,6.53-30.66-2.16a19.79,19.79,0,0,1-3.08-9.09c-14,6.21-31.09,9.51-40.19,23-10.07,14.89-7.95,32.54-12.23,49.18a305.1,305.1,0,0,0,61.45,58.84C356.51,814.86,344.48,781.93,319,759.1Z" transform="translate(-229.3 -297.92)"/><path class="cls-8" d="M621.29,851.46c-.5-11.5-.5-24-3-35.58a1.63,1.63,0,0,1-.07-.3c-1.87-8.59-5.12-16.7-11-23.58-3.78,10.17-11.92,16-22.57,18.83a91.72,91.72,0,0,0-15.6,30.2,1.52,1.52,0,0,1-2.51.66A89.29,89.29,0,0,1,551.34,826a11,11,0,0,1-1.83,1.15.08.08,0,0,1,0,0c.71,6.48,4.62,12.19,6.06,18.54,1.29,5.65,1.71,11.52,2.36,17.27q2.28,20.22,4.55,40.45a301,301,0,0,0,59.78-11.58C621.73,878.41,621.87,864.92,621.29,851.46Z" transform="translate(-229.3 -297.92)"/><path class="cls-4" d="M441.78,673.33h72V635.78H428.25v30.43c1.53,5.19,7.57,7.33,12.76,7.33A1.42,1.42,0,0,1,441.78,673.33Zm42.12-31.84c10.41-.92,20.41,6.52,21.4,15.93l-2,.2s0-.06,0-.09l-40.07.56c-.1.17-.21.34-.31.52l-1.74-1C466.54,648.3,475,642.27,483.9,641.49Z" transform="translate(-229.3 -297.92)"/><path class="cls-7" d="M609.73,790.25c6,7.2,9.31,15.52,11.24,24.31,3.12,7.17,8.69,12.53,13.95,18.11,2.22-6.55,6.76-12,10.17-18a35.52,35.52,0,0,0,4.38-15c.43-5.06,1-10.71-.58-15.59h0A66.61,66.61,0,0,1,609.73,790.25Z" transform="translate(-229.3 -297.92)"/><path class="cls-9" d="M534.7,301.92A301.44,301.44,0,0,0,295.29,786.47c3.81-16.76,2.22-34,12.79-48.84,9.7-13.59,27.38-16.81,41.68-23.39h0c-.16-3-.12-6.05-.37-8.87-.78-9.08-6.19-16.07-9.75-24.15-2.78-6.31-3.41-12.52-1.11-19.07,1.49-4.2,3.74-8.1,5.18-12.32,1.5-4.41,1.15-8.51,1.06-13.05-.17-8.26,4.15-14.35,9.25-20.45.8-1,1.63-1.94,2.49-2.9-4.45-12.89-16-21.69-25-31.4-9.39-10.18-14.15-21-14.93-35-.82-14.69-1.23-30.24,8.35-42.33,7.81-9.85,19-15.54,30.46-20.3a36.37,36.37,0,0,1-18.2-27.56c-1.71-15.26,7.81-28,18.76-37.47,24.56-21.29,57.64-31.63,89.94-28.75a30.21,30.21,0,0,1,4.21-10.3c6.3-9.7,16.84-17,26.9-22.37,20.76-11,46-15.22,68.41-6.86a111.24,111.24,0,0,1,40.17-11.3c31-2.69,69.44,7.39,84.15,37.46,8,16.25,8.39,33.5,4.13,49.93,13-.21,23.78,16.86,28.2,27.09,5.64,13,5.55,28.39-2.53,40.3a51.24,51.24,0,0,1,33.2,51.74c-2.39,33.88-28.69,59.16-37.44,91h.84a1.64,1.64,0,0,1,.39,0l.83.1a14.06,14.06,0,0,1,1.45.21,1.28,1.28,0,0,1,.67.32c7,2.56,7.86,11.87,6.58,18.66-.76,4.07-1.76,8-1.5,12.16.18,2.83.89,5.64.61,8.49-.56,5.76-5,10.13-6,15.89-1.13,6.23.08,12.33-.31,18.55a22.68,22.68,0,0,1-.34,2.84,1.29,1.29,0,0,1,.82.73c8.13,17.29,13.6,35.64,21.29,53.11a139.53,139.53,0,0,0,14,25.24q2.43,3.39,5.13,6.56c1.51,1.76,3.7,3.41,4.93,5.33,1.86,2.91,2.74,7,3.51,10.61A301.4,301.4,0,0,0,534.7,301.92Z" transform="translate(-229.3 -297.92)"/><path class="cls-7" d="M662.07,775.56a65.26,65.26,0,0,1-10.58,7.19,1.39,1.39,0,0,1,.29.54c2.64,8.37,1.39,20.58-1.95,28.64-3.39,8.21-10.25,14.63-12.54,23.32a43.62,43.62,0,0,1,8.14,12.1c4.38,10.46,6.12,22.53,6.19,33.93q4.41-1.85,8.75-3.85Q661.92,826.52,662.07,775.56Z" transform="translate(-229.3 -297.92)"/><path class="cls-10" d="M554.94,863c-.79-7-1.21-14.21-3.49-20.92-1.61-4.74-4-8.93-4.77-13.86a26.9,26.9,0,0,1-8.27.6c-1.14-.07-2.29-.17-3.44-.32a289.13,289.13,0,0,1-6.91,76.14q3.32.08,6.64.08,12.49,0,24.82-1Q557.23,883.36,554.94,863Z" transform="translate(-229.3 -297.92)"/><path class="cls-7" d="M642,847a43,43,0,0,0-7.19-10.32,1.59,1.59,0,0,1-.49-.54c-4-4.38-8.41-8.46-11.93-13.22,1.11,8.48,1.34,17.2,1.73,25.58.67,14.13.56,28.3,1.1,42.44q11.87-3.72,23.38-8.41C648.68,870.69,647.05,857.74,642,847Z" transform="translate(-229.3 -297.92)"/><path class="cls-8" d="M530.2,828.39q-8.94,8.36-17.28,17.31a1.5,1.5,0,0,1-2.12,0C502.38,834.85,494,824,484.88,813.65c-8.23-9.37-18.54-17.63-24.91-28.46a161.41,161.41,0,0,1-19.55.14c-.54,18.17,2.05,36.49,4.43,54.46,2.36,17.81,5.27,35.58,7.07,53.47A302.06,302.06,0,0,0,525,904.55,285.72,285.72,0,0,0,532,828c-.44-.1-.88-.21-1.31-.33A1.31,1.31,0,0,1,530.2,828.39Z" transform="translate(-229.3 -297.92)"/><path class="cls-7" d="M417.36,806.17c4.47,7.29,9.63,14.18,14.35,21.32q3.57-2.47,7.16-4.83a1.29,1.29,0,0,1,.73-.24c-1.48-12.41-2.57-24.91-2.18-37.34a65.31,65.31,0,0,1-15.08-3.21,52.85,52.85,0,0,1-8.58-3.93C406.87,785.89,412.72,798.58,417.36,806.17Z" transform="translate(-229.3 -297.92)"/><path class="cls-6" d="M420.87,508.6a3.39,3.39,0,0,0-1.06,4.55,1.43,1.43,0,0,1,.18.8c1.27.65,2.55-.05,3.42-1.2.72-1,1.8-2.92.9-4S421.83,508,420.87,508.6Z" transform="translate(-229.3 -297.92)"/><path class="cls-7" d="M397.58,871.87a297.58,297.58,0,0,0,51.24,20.49c-1.8-17.58-4.65-35.06-7-52.57-.63-4.74-1.27-9.5-1.87-14.28-9.73,6.44-19.42,13.41-27.8,21.55C405.6,853.45,398.12,862.24,397.58,871.87Z" transform="translate(-229.3 -297.92)"/><path class="cls-7" d="M738.64,803.5a104.73,104.73,0,0,1-8-10.31,145.83,145.83,0,0,1-12.93-24c-7.27-16.67-12.59-34.13-20.18-50.66a42,42,0,0,1-1.5,4c-2.41,5.63-7.08,13.24-14.13,12.31a54.89,54.89,0,0,1-14.3,35.47c-.81.88-1.66,1.73-2.52,2.56Q665,824.46,663.41,876a301.56,301.56,0,0,0,82.22-57.45C744.25,812.54,742.78,808.18,738.64,803.5Z" transform="translate(-229.3 -297.92)"/><path class="cls-8" d="M463.43,785.05l-.05,0c6.57,10.41,16.8,18.65,24.82,27.89,8.28,9.52,16,19.48,23.77,29.44q7.63-8.11,15.77-15.75a16.15,16.15,0,0,1-4.77-3.15c-4.85-4.71-4.1-11-5.14-17.14a1.55,1.55,0,0,1,.25-1.14A358.37,358.37,0,0,1,463.43,785.05Z" transform="translate(-229.3 -297.92)"/><path class="cls-10" d="M550.44,822.83c2.84-2.85,3-6.83,3.06-10.61a218.19,218.19,0,0,1-32.72-6.31c.61,4.05.25,8.51,2.06,12.23,2.58,5.29,8.38,7,13.83,7.55C541.3,826.15,546.9,826.4,550.44,822.83Z" transform="translate(-229.3 -297.92)"/><path class="cls-8" d="M556.49,812.5c0,4.07-.47,8.2-3,11.43a1.55,1.55,0,0,1,.21.23,86.11,86.11,0,0,0,13.26,13.92,95.71,95.71,0,0,1,13.34-26.27A93.7,93.7,0,0,1,556.49,812.5Z" transform="translate(-229.3 -297.92)"/><path d="M356.81,683.23c-2.74-7.85-5-15.79-2.2-24a27.48,27.48,0,0,1,14.54-16c1.75-.82.23-3.41-1.51-2.59a30.24,30.24,0,0,0-15.41,16.41c-3.58,9.14-1.43,18,1.69,26.94C354.55,685.84,357.45,685.06,356.81,683.23Z" transform="translate(-229.3 -297.92)"/><path d="M684.43,704.88a50.9,50.9,0,0,0,3.66-26c-.75-5.9-1.74-11.22,1.33-16.66a21.44,21.44,0,0,1,1.15-1.82,25.83,25.83,0,0,1,3.26,18.85c-.39,1.89,2.5,2.69,2.89.8a29,29,0,0,0-3.8-21.58,1.52,1.52,0,0,0-.46-.48,66.63,66.63,0,0,1,7-6.71c1.47-1.25-.66-3.37-2.12-2.12-6.41,5.5-13.14,12-13.26,21.09-.07,5.33,1.47,10.53,1.37,15.89a49,49,0,0,1-4,18C680.79,705.86,683.69,706.64,684.43,704.88Z" transform="translate(-229.3 -297.92)"/><path d="M529.46,681.63c1.82.65,2.6-2.25.8-2.9-8.1-2.92-14.26,3.22-15.72,10.93-.71,3.72-.09,7.51,3,10,4.15,3.43,10.26,2.7,15.21,2.15a1.53,1.53,0,0,0,1-.48,25.74,25.74,0,0,0,13.1,11.75c7.5,3,18.49,4.61,24.47-2.09a22.9,22.9,0,0,0,4.71-8.76c2,0,3.38,1.37,5.44.93a8.45,8.45,0,0,0,4.22-2.65c2.47-2.94,1.61-8.15,1.16-11.61-.73-5.67-2.06-11.72-9.19-9.67a1.5,1.5,0,0,0,.8,2.89c4.9-1.41,5,3.67,5.41,7.18.32,2.61,1,6.31-.38,8.65-1.7,2.91-4.29,1.6-6.74,1.32a34.39,34.39,0,0,0,.34-10.54c-.68-5.57-3-10.74-5.13-15.88-2-4.78-6.62-9.28-6.37-14.67.09-1.93-2.91-1.92-3,0-.15,3.31,1.07,5.94,2.73,8.75a74.26,74.26,0,0,1,5.26,10.47c3.21,7.93,5.07,15.75,2.44,24.18-1.09,3.49-2.92,7.23-6.07,9.32-4.29,2.84-10.8,1.72-15.48.53-9.59-2.44-15.84-9.69-17.91-19.25-.4-1.89-3.3-1.09-2.89.8a31.07,31.07,0,0,0,1.88,5.86c-3.21.36-6.89.84-10,0-4.43-1.21-5.78-5.05-4.87-9.11C518.89,683.88,523.2,679.36,529.46,681.63Z" transform="translate(-229.3 -297.92)"/><path class="cls-6" d="M432.27,479.21c-5-2.77-12.12,2.89-15.58,6.28-4.06,4-4.68,9.69-.49,13.85a1.34,1.34,0,0,0,1.41.38,2,2,0,0,0,.34.12c6.63,1.56,13.77-1.72,18.24-6.7C440.13,488.75,437,481.8,432.27,479.21Zm-1.57,14.63c-3.56,2.52-7.53,4.14-11.95,3.1a1.46,1.46,0,0,0-.69,0c-3.13-3.42-1.55-7.39,1.64-10.12a32.56,32.56,0,0,1,3.83-2.75c2.27-1.43,3.12-2,5.91-1.64,2.51.28,5.32,1.79,5.51,4.92C435.12,490.26,432.78,492.36,430.7,493.84Z" transform="translate(-229.3 -297.92)"/><path class="cls-6" d="M418.94,506.3a6.45,6.45,0,0,0-1.72,8.37,1.27,1.27,0,0,0,.21.29,1.54,1.54,0,0,0,.62,1.32c5.2,4,12.65-5.25,8.38-9.67C424.45,504.56,421.14,504.72,418.94,506.3Zm4.47,6.45c-.87,1.15-2.15,1.85-3.42,1.2a1.43,1.43,0,0,0-.18-.8,3.39,3.39,0,0,1,1.06-4.55c1-.6,2.61-.88,3.44.13S424.13,511.79,423.41,512.75Z" transform="translate(-229.3 -297.92)"/><path d="M425.27,666.66a1.48,1.48,0,0,0,.12.45c2.26,7.51,11.24,10,18.31,9.22h71.59a1.4,1.4,0,0,0,1-.4l.05,0,0,0a1.35,1.35,0,0,0,.41-1V657.77a1.47,1.47,0,0,0,.47-.35c8.38-9.25,21.5-9.08,33.08-9.27s21.68,3.53,30.17,11.73a1.74,1.74,0,0,0,.22.18c.12,4.7.22,9.39.23,14.09a1.37,1.37,0,0,0,.4,1,1.34,1.34,0,0,0,1.1.5c24.75,0,49.49.45,74.23.46,5.21.47,10-4.54,10.83-9.46a1.7,1.7,0,0,0,.05-.41c0-10.65-.24-21.3-.25-32a1.37,1.37,0,0,0-.4-1l-.07-.07h0a1.37,1.37,0,0,0-1-.42h-83.1a1.55,1.55,0,0,0-.59.12,1.46,1.46,0,0,0-1.94,1.38c0,4.85.12,9.69.24,14.53-8.55-7.29-18.52-10.7-30-10.52-11.73.19-24.72.26-33.68,8.6V634.28a1.38,1.38,0,0,0-.4-1l0,0,0,0a1.39,1.39,0,0,0-1-.41h-87.6a1.51,1.51,0,0,0-2.44,1.15v32.49A1.94,1.94,0,0,0,425.27,666.66Zm3-.45V635.78h85.54v37.55h-72a1.42,1.42,0,0,0-.77.21C435.82,673.54,429.78,671.4,428.25,666.21Zm228.44,6.9c-24.25,0-48.49-.43-72.74-.46-.08-12.29-.66-24.57-.75-36.87h81.12c0,10.11.24,20.22.25,30.33C663.87,669.73,660.58,673.46,656.69,673.11ZM517.38,650.56c8.38-9.25,21.5-9.08,33.09-9.27s21.61,3.51,30.07,11.65c0,1,.06,2,.08,3-8.61-7.47-18.7-11-30.28-10.78s-24.6.26-33.55,8.49V651A1.38,1.38,0,0,0,517.38,650.56Z" transform="translate(-229.3 -297.92)"/><path d="M553.21,717.17a7.78,7.78,0,0,0,8.7,10.91c1.89-.37,1.09-3.27-.8-2.9a4.74,4.74,0,0,1-5.31-6.5C556.56,716.93,554,715.4,553.21,717.17Z" transform="translate(-229.3 -297.92)"/><path d="M581.78,757.67c-9.63-6-20.55-3.47-30.1,1.33-1.73.87-.21,3.46,1.51,2.59,8.6-4.33,18.35-6.81,27.08-1.33C581.91,761.29,583.41,758.69,581.78,757.67Z" transform="translate(-229.3 -297.92)"/><path d="M578.71,563.42c1.82-.61,1-3.51-.8-2.89-21.3,7.09-41.48-5.45-61.48-11.08a116,116,0,0,0-58.26-1c-1.88.45-1.08,3.34.8,2.89a114.18,114.18,0,0,1,63.67,3.16C540.7,560.73,559.39,569.86,578.71,563.42Z" transform="translate(-229.3 -297.92)"/><path d="M556.2,546.92c10.12-.41,18.74-5.28,27.61-9.68,11.33-5.62,23.05-8.3,35.71-7.07,1.93.19,1.91-2.81,0-3a63.83,63.83,0,0,0-31.37,4.74c-10.51,4.49-20.18,11.53-31.95,12C554.27,544,554.26,547,556.2,546.92Z" transform="translate(-229.3 -297.92)"/><path d="M471.19,520.9c17.2-2.25,34.85-4.59,52.12-1.66,15,2.54,29.23,10.25,44.72,7.09,1.89-.38,1.09-3.27-.8-2.89-16,3.26-31.6-5.73-47.29-7.71-16.25-2-32.62.06-48.75,2.17C469.3,518.14,469.28,521.15,471.19,520.9Z" transform="translate(-229.3 -297.92)"/><path d="M534.7,297.92a305.4,305.4,0,1,0,215.95,89.45A303.42,303.42,0,0,0,534.7,297.92ZM297.64,789.5c4.28-16.64,2.16-34.29,12.23-49.18,9.1-13.44,26.15-16.74,40.19-23a19.79,19.79,0,0,0,3.08,9.09c6,8.69,22.91,7.93,30.66,2.16a64.13,64.13,0,0,0,13,34.53,58.53,58.53,0,0,0,14.34,13.22c-5.39,6.78-3.55,16.61-.29,24,4.55,10.35,12.12,19.4,18.37,28.81a145.74,145.74,0,0,0-21.05,17.59c-6.1,6.36-12.47,14.51-13.52,23.58a300.52,300.52,0,0,1-32.44-19.78c-2.25-35-14.5-69.76-41.17-93.62-1.43-1.28-3.56.83-2.12,2.12,25.52,22.83,37.55,55.76,40.13,89.24a305.1,305.1,0,0,1-61.45-58.84Zm50.17-152.73a22,22,0,0,1,4.46-13.38c.86-1.23,1.83-2.59,2.89-4a1.54,1.54,0,0,0,1.44,1.65c7.86.58,13.8,6.77,16.12,14,2.53,7.91.83,16.5-1.49,24.23-1.85,6.17-4.63,12.3-4.7,18.85-.07,6.84,3.17,13,6.39,18.79.94,1.69,3.53.18,2.59-1.52-2.45-4.44-5-9-5.71-14s.59-9.81,2.13-14.56c2.43-7.49,5-15.05,5-23,0-12.14-7.25-24.79-20.35-25.76a1.76,1.76,0,0,0-.41,0c.78-1,1.61-2,2.48-3a1.39,1.39,0,0,0,1.1-1.2c4-4.14,8.64-7.56,13.74-7.69,9.21-.23,16,10,14.53,18.5-.72,5-5.3,40.77,6.69,36.69,4-1.37,8.21-5.24,11.57-7.79,1.51-1.15,4.43-2.62,4.59-4.86a4.9,4.9,0,0,0-.69-2.17c-.87-2.31-2.17-4.33-2.72-6.8a23.82,23.82,0,0,1,1.88-15.45,1.27,1.27,0,0,0,.12-.36,14.37,14.37,0,0,0,5.38-.89,1.5,1.5,0,0,0,.91-.86,89.24,89.24,0,0,1,51.48-4.85c16.21,3.37,31.33,10.88,47.83,13,6.49.82,13.1.49,17.57-4.86,3.86-4.63,5.7-11.39,5.54-17.35-.31-11.74-10.17-22.2-22.39-19.32a1.61,1.61,0,0,0-.48.2,13.58,13.58,0,0,0-5.33-3.67c-5.67-2.21-11.53.46-17,2.14a25.92,25.92,0,0,0-28.22-5.38,1.32,1.32,0,0,0-.57.44,13.65,13.65,0,0,0-2.28-1.26,16.4,16.4,0,0,0-7.24-1.11c-6.37.36-12.34,3.28-17.9,6.18l-.23.15c-8.51-2-18-5.44-23.39,3.18l-.07.14a71.88,71.88,0,0,1,14.63-42.51,1.51,1.51,0,0,0-.53-2.06,53.6,53.6,0,0,1-29.24-37.73c-.85-4.39-1.67-10-.24-14.34s5.42-7.18,8.7-9.89a122,122,0,0,1,21-13.84c29-15.23,63.82-20.09,95.74-12.45.06.15.11.31.17.46,2.39,6.05,6.75,14.11,14.06,14.59,16,6.6,34.94,9.12,51.33,2.4a48.11,48.11,0,0,0,17.55-12.18,1.6,1.6,0,0,0,1.62.79,58.65,58.65,0,0,1,59.64,29.19c2.75,4.93,5.74,11.19,5.88,16.95s-2.94,11.28-5.6,16.08a75.84,75.84,0,0,1-22.23,24.8l-.18,0a1.19,1.19,0,0,0-1.41,1.2,1.5,1.5,0,0,0-.41.61,1.44,1.44,0,0,0,.05,1.29c6.37,12.16,12.55,24.73,15.68,38.16a25.94,25.94,0,0,0-9.65-1.1,21.17,21.17,0,0,0-13.54-4.73c-3.88,0-7.52,1.05-11.2,2a34.24,34.24,0,0,0-23.25-3.36c-4.17.87-8.85,2.75-12,5.84l-.22-.09c-9.13-2.57-18.72,2.66-20.23,12.35-1.39,9,5.17,16.6,13,19.87a1.49,1.49,0,0,0,1.66.77l.25-.06.12,0a1.29,1.29,0,0,0,1.45-.39c14-3.18,29.41-8.23,43.6-5,12.1,2.73,22.83,10.64,35.5,11h0a1.45,1.45,0,0,0,.38.79c4.44,5,4.89,13,5.82,19.31,1.06,7.25,1.82,14.55,2.58,21.84.14,1.32,2.08,2.24,2.79.76,2-4.14,4.26-8.23,6-12.48,1.62-3.93.57-8,1.76-11.91l.15-.22c2.15-4.32,7.64-6.64,12.41-6.27,5.81.56,7.49,7.38,7,12.24s-2.27,9.57-2.21,14.52c.06,5.65,1.6,10-1.31,15.28A32.49,32.49,0,0,0,696,693.93c-1,7.38.91,15-1,22.24-1.33,5.17-5.84,17.14-13,15.69H682a56.39,56.39,0,0,0-4.68-21.69c-.77-1.77-3.35-.24-2.59,1.51,8.34,19.07,4.44,42.61-10.19,57.58-14,14.36-36,21.56-55.78,17.8a51.87,51.87,0,0,0,.55-16.25c-.2-1.9-3.2-1.93-3,0,1.53,14.33-2,27.5-15.54,34.56a39.13,39.13,0,0,1-6.66,2.68,1.14,1.14,0,0,0-1.22.38c-11.58,3.14-24.32,1.42-36-.42a297.45,297.45,0,0,1-81.36-25.28,1.27,1.27,0,0,0-1.31-.77c-12.5.73-25.39,1.51-37.6-1.9a52.7,52.7,0,0,1-27.38-18.73c-15.26-19.68-15.61-46-6.95-68.58.69-1.8-2.21-2.58-2.9-.8a85,85,0,0,0-5.74,33.71,1.18,1.18,0,0,0-1.14.24c-4.81,3.71-11.78,4.43-17.65,3.52-9-1.42-11.55-7.35-12-16-.41-7.26-.59-13.68-3.7-20.42s-8.22-13.25-8.95-21c-.8-8.37,4.78-15.15,7-22.86C348.3,645,347.83,641.05,347.81,636.77Zm15.53-152.31c1.78-.71,1-3.61-.79-2.89l-3.44,1.37A33.31,33.31,0,0,1,340,452.89c.09-15.52,12.56-27.59,24.16-36.25a119.46,119.46,0,0,1,81.25-23c-.93,7.51.42,15.36,2,23,.39,1.89,3.28,1.09,2.89-.79-2.73-13.24-4.26-26.29,5-37.4,6.88-8.25,16.48-14.55,26.05-19.26C500,350,521.9,346.62,541.82,353q-4,2.21-7.87,4.74c-1.61,1.06-.11,3.66,1.51,2.59a108.39,108.39,0,0,1,88.66-14c15.28,4.35,30.27,12.23,39.26,25.76,8.28,12.46,11.46,28,9.94,42.78A79.81,79.81,0,0,1,670.83,428a1.28,1.28,0,0,0-.13.51c-3.87,13.73-11.12,26.43-19.89,37.67-1.17,1.5.94,3.64,2.12,2.12C661.75,457,669,444,673.08,430.23c7-.8,12.75,5.52,16.84,10.33a58.27,58.27,0,0,1,10.62,17.87c4.2,11.76,3.32,24.89-3.91,35.18a50.29,50.29,0,0,0-10.51-1.92c-1.92-.14-1.91,2.86,0,3a48.09,48.09,0,0,1,34.26,18.67c9.54,12.37,11.25,28.07,7.89,43a114.25,114.25,0,0,1-9.67,25.79,144.37,144.37,0,0,0-68.88-31.41,78.65,78.65,0,0,0,21.41-25.33c2.58-4.89,5.43-10.51,5.24-16.18-.19-5.9-2.86-12-5.57-17.13-12.07-22.93-37.25-35.29-62.7-32l.08-.1c6.2-8,8.5-17.84,10.58-27.56.4-1.88-2.49-2.69-2.9-.8-1.89,8.88-3.87,18-9.27,25.51a43.78,43.78,0,0,1-19.08,14.61c-15.91,6.49-34.5,3.86-49.94-2.78a1.55,1.55,0,0,0-1.25,0c-5.34-1.19-8.79-8.13-10.66-13.57a1.44,1.44,0,0,0-.13-.4c-.34-1-.63-2-.86-2.83a41.53,41.53,0,0,1-.19-20.57c.44-1.88-2.45-2.68-2.9-.8a45.07,45.07,0,0,0,.43,23,135.32,135.32,0,0,0-31.91-3.19,1.41,1.41,0,0,0-.47-.33,33.55,33.55,0,0,1-15.14-48.91c1-1.64-1.57-3.14-2.59-1.51a36.52,36.52,0,0,0,12.25,51,145,145,0,0,0-43.35,9.39,131.59,131.59,0,0,0-35.94,20.58c-5.12,4.17-10.09,8.32-10.71,15.3a48,48,0,0,0,2.77,19.29A56.75,56.75,0,0,0,422,545.92a204.55,204.55,0,0,0-80.78,41.33c-9.15-9.28-18.42-18.44-20.74-32.21-1.26-7.45-1.15-15.17-1-22.71.13-8.11,1.22-15.79,5.71-22.71C333.77,496.29,349.2,490.07,363.34,484.46ZM692.23,637.3a1.9,1.9,0,0,0-.05.4c-4.25.87-8.24,3.26-10.28,7a1.58,1.58,0,0,0-.42.6c-1.39,3.61-.26,7.29-1.34,11a49.78,49.78,0,0,1-4.1,9.07c-.69-6.5-1.43-13-2.44-19.45-1-6.1-1.65-12.55-5.39-17.57,7.39-1.05,13.66-6.26,11.64-14.71a13.64,13.64,0,0,0-6.3-8.72c-3-4.56-6.57-9.6-11.46-12.3a1.48,1.48,0,0,0,.26-1.24q-.29-1.26-.6-2.52a46,46,0,0,1,25.51,14.88c1.28,1.46,3.39-.67,2.12-2.12a48.57,48.57,0,0,0-28.2-15.93l-.3,0a132.59,132.59,0,0,0-6.51-17.37c7.72-1.07,14.6,3.64,20.94,7.57q9.08,5.65,18.17,11.29c1.64,1,3.15-1.57,1.51-2.59-7.59-4.71-15.11-9.59-22.8-14.13-6-3.52-12.18-6.21-19.12-5-1.91-4.09-4-8.12-6-12.1a140.69,140.69,0,0,1,69.78,31.21,1.3,1.3,0,0,0,.42.25C708.34,602.05,697.25,618.37,692.23,637.3ZM584.29,619.74c-6.78-2.4-12.88-8.49-12.24-16.16.67-8,8.1-12.51,15.5-11a11.08,11.08,0,0,0-1.6,4.59c-.22,1.91,2.78,1.9,3,0,.83-7.35,11.42-10.24,17.52-10.65a31.46,31.46,0,0,1,13.64,2.07,22.27,22.27,0,0,1-5.49.28c-1.92-.16-1.91,2.84,0,3a34.49,34.49,0,0,0,10.23-1.1,1.39,1.39,0,0,0,.68-.15c6.81-1.55,13.57-3.48,19.7.1-1.5.23-3,.52-4.36.83-1.88.42-1.09,3.31.8,2.89a52.37,52.37,0,0,1,7.32-1.15,1.29,1.29,0,0,0,.39,0c3.94-.26,7.93.13,11.22,1.94s5.68,4.58,7.86,7.56a28.22,28.22,0,0,0-11.13-.46c-1.9.29-1.09,3.18.8,2.89,5.19-.78,11-.41,15.16,3.19,5.37,4.68,5.37,13.37-1.86,16.16-9.55,3.69-20.95-2.45-29.66-6-9-3.7-17.7-5.69-27.49-4.68C604.18,614.9,594.2,617.56,584.29,619.74ZM423,548.75a74.64,74.64,0,0,0-9,18,1.51,1.51,0,0,0-.6,0c-7.8,1.51-13.23,3.07-15.19,4.58a42.3,42.3,0,0,1-15.05,7,1.5,1.5,0,0,0,.8,2.89c4.5-1.2,8.34-3.63,12.46-5.71a65.06,65.06,0,0,1,16.59-5.6,74.68,74.68,0,0,0-2.2,10.18h0l-19.57,8.39c-1.77.75-.25,3.34,1.51,2.59l17.66-7.57q-.31,3.24-.36,6.53c-3.36,0-6.55.47-8.95,2.24-4.33,3.19-6.57,9.44-6.72,14.64-.22,7.85,5,15,12,16.75a26.88,26.88,0,0,0-2.31,14.32A25.78,25.78,0,0,0,406,645c.29.67,1.6,2.57,1.58,3.11-.06,1.5-3.62,3.52-4.31,4-2.19,1.62-5.69,5.06-8.41,5.71-4.26,1-5-7.21-5.3-10.17-.75-7.39.3-14.85,1.34-22.16,2-11.15-7.58-24.32-19.78-22-4.88.92-8.85,3.92-12.31,7.43-3.32-8.46-9.27-15.13-15.54-21.56A201.33,201.33,0,0,1,423,548.75Zm20.82,41.91a1.5,1.5,0,0,0,0-3,20.29,20.29,0,0,1-2.63-.2c4.67-2.33,9.75-4.46,14.93-4.28,6.06.21,9,5.24,14.44,6.79a1.5,1.5,0,0,0,.8-2.89,14.11,14.11,0,0,1-4.58-2.55,22.73,22.73,0,0,1,27.83,10.13c.94,1.69,3.53.18,2.59-1.52a24.46,24.46,0,0,0-2.09-3.17c3-1,6-2.13,9.1-2.36,5.42-.4,10.77,3.21,11.18,8.92.14,1.92,3.14,1.93,3,0a12.84,12.84,0,0,0-1.35-4.88c6.95-1.38,13.68,2.72,16.48,9.13,3,6.81,1.78,15.68-2.43,21.77-5,7.2-14.48,5.36-21.8,3.84a185.67,185.67,0,0,1-19.77-5.65c-12.28-4-24.52-7.74-37.54-8.12a92.36,92.36,0,0,0-37.89,7.07,1.57,1.57,0,0,0-.82.78c-9.87,3-17.32-6.8-15.62-16.19,1-5.45,4.07-10.68,10.06-11,4.84-.29,10,.62,14.88.93,1.93.13,1.92-2.87,0-3s-4.06-.44-6.35-.72C422.38,582.45,435.83,590.64,443.86,590.66ZM562.49,903.45q-2.28-20.22-4.55-40.45c-.65-5.75-1.07-11.62-2.36-17.27-1.44-6.35-5.35-12.06-6.06-18.54a.08.08,0,0,0,0,0,11,11,0,0,0,1.83-1.15,89.29,89.29,0,0,0,15.27,15.69,1.52,1.52,0,0,0,2.51-.66,91.72,91.72,0,0,1,15.6-30.2c10.65-2.81,18.79-8.66,22.57-18.83,5.83,6.88,9.08,15,11,23.58a1.63,1.63,0,0,0,.07.3c2.48,11.61,2.48,24.08,3,35.58.58,13.46.44,26.95,1,40.41A301,301,0,0,1,562.49,903.45ZM525,904.55a302.06,302.06,0,0,1-73.08-11.29c-1.8-17.89-4.71-35.66-7.07-53.47-2.38-18-5-36.29-4.43-54.46a161.41,161.41,0,0,0,19.55-.14c6.37,10.83,16.68,19.09,24.91,28.46,9.07,10.33,17.5,21.2,25.92,32.05a1.5,1.5,0,0,0,2.12,0q8.36-9,17.28-17.31a1.31,1.31,0,0,0,.44-.75c.43.12.87.23,1.31.33A285.72,285.72,0,0,1,525,904.55ZM422.34,781.87a65.31,65.31,0,0,0,15.08,3.21c-.39,12.43.7,24.93,2.18,37.34a1.29,1.29,0,0,0-.73.24q-3.58,2.36-7.16,4.83c-4.72-7.14-9.88-14-14.35-21.32-4.64-7.59-10.49-20.28-3.6-28.23A52.85,52.85,0,0,0,422.34,781.87ZM440,825.51c.6,4.78,1.24,9.54,1.87,14.28,2.32,17.51,5.17,35,7,52.57a297.58,297.58,0,0,1-51.24-20.49c.54-9.63,8-18.42,14.6-24.81C420.56,838.92,430.25,832,440,825.51Zm77.85-19.2c1,6.14.29,12.43,5.14,17.14a16.15,16.15,0,0,0,4.77,3.15q-8.15,7.62-15.77,15.75c-7.74-10-15.49-19.92-23.77-29.44-8-9.24-18.25-17.48-24.82-27.89l.05,0a358.37,358.37,0,0,0,54.65,20.12A1.55,1.55,0,0,0,517.83,806.31Zm5,11.83c-1.81-3.72-1.45-8.18-2.06-12.23a218.19,218.19,0,0,0,32.72,6.31c0,3.78-.22,7.76-3.06,10.61-3.54,3.57-9.14,3.32-13.77,2.86C531.22,825.16,525.42,823.43,522.84,818.14Zm44.09,19.94a86.11,86.11,0,0,1-13.26-13.92,1.55,1.55,0,0,0-.21-.23c2.56-3.23,3-7.36,3-11.43a93.7,93.7,0,0,0,23.78-.69A95.71,95.71,0,0,0,566.93,838.08Zm82-54h0c1.54,4.88,1,10.53.58,15.59a35.52,35.52,0,0,1-4.38,15c-3.41,6-8,11.41-10.17,18-5.26-5.58-10.83-10.94-13.95-18.11-1.93-8.79-5.26-17.11-11.24-24.31A66.61,66.61,0,0,0,648.89,784.08ZM624.14,848.5c-.39-8.38-.62-17.1-1.73-25.58,3.52,4.76,7.94,8.84,11.93,13.22a1.59,1.59,0,0,0,.49.54A43,43,0,0,1,642,847c5,10.74,6.66,23.69,6.6,35.53q-11.5,4.68-23.38,8.41C624.7,876.8,624.81,862.63,624.14,848.5Zm21.29-1.15a43.62,43.62,0,0,0-8.14-12.1c2.29-8.69,9.15-15.11,12.54-23.32,3.34-8.06,4.59-20.27,1.95-28.64a1.39,1.39,0,0,0-.29-.54,65.26,65.26,0,0,0,10.58-7.19q-.17,50.94-1.7,101.87-4.35,2-8.75,3.85C651.55,869.88,649.81,857.81,645.43,847.35Zm19.66-74.48c.86-.83,1.71-1.68,2.52-2.56a54.89,54.89,0,0,0,14.3-35.47c7.05.93,11.72-6.68,14.13-12.31a42,42,0,0,0,1.5-4c7.59,16.53,12.91,34,20.18,50.66a145.83,145.83,0,0,0,12.93,24,104.73,104.73,0,0,0,8,10.31c4.14,4.68,5.61,9,7,15.09A301.56,301.56,0,0,1,663.41,876Q665,824.47,665.09,772.87Zm-137,131.77A289.13,289.13,0,0,0,535,828.5c1.15.15,2.3.25,3.44.32a26.9,26.9,0,0,0,8.27-.6c.79,4.93,3.16,9.12,4.77,13.86,2.28,6.71,2.7,13.92,3.49,20.92q2.29,20.36,4.58,40.7-12.32,1-24.82,1Q531.37,904.72,528.06,904.64Zm220.09-88.53c-.77-3.57-1.65-7.7-3.51-10.61-1.23-1.92-3.42-3.57-4.93-5.33q-2.7-3.17-5.13-6.56a139.53,139.53,0,0,1-14-25.24c-7.69-17.47-13.16-35.82-21.29-53.11a1.29,1.29,0,0,0-.82-.73,22.68,22.68,0,0,0,.34-2.84c.39-6.22-.82-12.32.31-18.55,1.05-5.76,5.48-10.13,6-15.89.28-2.85-.43-5.66-.61-8.49-.26-4.19.74-8.09,1.5-12.16,1.28-6.79.43-16.1-6.58-18.66a1.28,1.28,0,0,0-.67-.32,14.06,14.06,0,0,0-1.45-.21l-.83-.1a1.64,1.64,0,0,0-.39,0h-.84c8.75-31.83,35-57.11,37.44-91a51.24,51.24,0,0,0-33.2-51.74c8.08-11.91,8.17-27.26,2.53-40.3-4.42-10.23-15.2-27.3-28.2-27.09,4.26-16.43,3.82-33.68-4.13-49.93-14.71-30.07-53.16-40.15-84.15-37.46a111.24,111.24,0,0,0-40.17,11.3c-22.41-8.36-47.65-4.18-68.41,6.86-10.06,5.35-20.6,12.67-26.9,22.37a30.21,30.21,0,0,0-4.21,10.3c-32.3-2.88-65.38,7.46-89.94,28.75-10.95,9.49-20.47,22.21-18.76,37.47a36.37,36.37,0,0,0,18.2,27.56c-11.41,4.76-22.65,10.45-30.46,20.3-9.58,12.09-9.17,27.64-8.35,42.33.78,13.92,5.54,24.78,14.93,35,9,9.71,20.54,18.51,25,31.4-.86,1-1.69,1.94-2.49,2.9-5.1,6.1-9.42,12.19-9.25,20.45.09,4.54.44,8.64-1.06,13.05-1.44,4.22-3.69,8.12-5.18,12.32-2.3,6.55-1.67,12.76,1.11,19.07,3.56,8.08,9,15.07,9.75,24.15.25,2.82.21,5.85.37,8.87h0c-14.3,6.58-32,9.8-41.68,23.39-10.57,14.81-9,32.08-12.79,48.84a301.42,301.42,0,1,1,452.86,29.64Z" transform="translate(-229.3 -297.92)"/><path d="M607.32,712.94c-1.7-.91-3.22,1.68-1.51,2.59a19.5,19.5,0,0,1,4.14,3,2.3,2.3,0,0,0-.37.16c-18.69,10.83-39.67,20.54-61.82,17.58-10.61-1.42-21.34-3.54-31.79-5.87-10.13-2.25-21-5.58-28.92-12.47a32.74,32.74,0,0,1,6.24-4.19c1.72-.88.21-3.47-1.51-2.59A34.91,34.91,0,0,0,478,723.9c-1,1.65,1.57,3.16,2.59,1.52a31.78,31.78,0,0,1,4.27-5.46c7.76,6.77,17.71,10.14,27.57,12.67a309.13,309.13,0,0,0,35,6.58c22.81,3.09,44.47-6.79,63.73-18a1.4,1.4,0,0,0,.67-.81,19.75,19.75,0,0,1,2.5,4.07c.81,1.75,3.4.23,2.59-1.52A21.71,21.71,0,0,0,607.32,712.94Z" transform="translate(-229.3 -297.92)"/><path class="cls-4" d="M484.08,643.48c-8.05.71-15.81,6.17-20.86,14.61l40.07-.56C502.29,648.6,492.35,642.75,484.08,643.48Z" transform="translate(-229.3 -297.92)"/><path d="M463.22,658.09c5-8.44,12.81-13.9,20.86-14.61,8.27-.73,18.21,5.12,19.21,14,0,0,0,.06,0,.09l2-.2c-1-9.41-11-16.85-21.4-15.93-8.86.78-17.36,6.81-22.73,16.12l1.74,1C463,658.43,463.12,658.26,463.22,658.09Z" transform="translate(-229.3 -297.92)"/><path class="cls-4" d="M615.53,645.18c-8,.72-15.8,6.17-20.86,14.61l40.08-.55C633.75,650.3,623.81,644.44,615.53,645.18Z" transform="translate(-229.3 -297.92)"/><polygon class="cls-8" points="364.19 361.89 364.19 361.89 364.19 361.89 364.19 361.89"/><polygon class="cls-8" points="406.45 361.3 406.45 361.3 406.45 361.3 406.45 361.3"/><path d="M615.36,643.19c-8.87.79-17.37,6.81-22.73,16.12l.86.5h0l.87.5c.1-.18.21-.34.31-.52,5.06-8.44,12.81-13.89,20.86-14.61,8.28-.74,18.22,5.12,19.22,14.06,0,0,0,.06,0,.09l1-.11h0l1-.1C635.76,649.71,625.79,642.27,615.36,643.19Z" transform="translate(-229.3 -297.92)"/></svg>